SplineFontDB: 3.2
FontName: InconsolataLGC
FullName: Inconsolata LGC
FamilyName: Inconsolata LGC
Weight: Regular
Copyright: Original Roman version created by Raph Levien using his own tools and FontForge. Copyright 2006 Raph Levien. Hellenisation of the Roman font, by Dimosthenis Kaponis, using FontForge. Hellenic glyphs Copyright 2010-2012 Dimosthenis Kaponis. Released under the SIL Open Font License, http://scripts.sil.org/OFL.\n\nCyrillic glyphs added by MihailJP, using FontForge. Cyrillic glyphs Copyright 2012 MihailJP. Released under the SIL Open Font License, http://scripts.sil.org/OFL.\n\nSome glyphs modified by Greg Omelaenko, using FontForge.\n\nArabic glyphs are derived from public domain part of DejaVu Sans Mono.
UComments: "2005-8-26: Created.+AAoACgAA-Extrapolate -0.15"
Version: 2.001
ItalicAngle: 0
UnderlinePosition: -101
UnderlineWidth: 50
Ascent: 840
Descent: 184
InvalidEm: 0
LayerCount: 2
Layer: 0 0 "Back" 1
Layer: 1 0 "Fore" 0
XUID: [1021 77 1780377399 11264577]
FSType: 0
OS2Version: 0
OS2_WeightWidthSlopeOnly: 0
OS2_UseTypoMetrics: 1
CreationTime: 1161020814
ModificationTime: 1775662766
PfmFamily: 49
TTFWeight: 400
TTFWidth: 5
LineGap: 0
VLineGap: 0
Panose: 2 11 6 9 3 0 3 0 0 0
OS2TypoAscent: 939
OS2TypoAOffset: 0
OS2TypoDescent: -198
OS2TypoDOffset: 0
OS2TypoLinegap: 0
OS2WinAscent: 1128
OS2WinAOffset: 0
OS2WinDescent: 283
OS2WinDOffset: 0
HheadAscent: 939
HheadAOffset: 0
HheadDescent: -198
HheadDOffset: 0
OS2CapHeight: 740
OS2XHeight: 543
OS2FamilyClass: 2048
OS2Vendor: 'PfEd'
Lookup: 1 0 0 "Urdu Arabic-Indic digits" { "Urdu Arabic-Indic digits-1" ("urdu") } ['locl' ('arab' <'URD ' > ) ]
Lookup: 1 1 0 "Initial forms" { "Initial forms-1"  } ['init' ('DFLT' <'dflt' > 'arab' <'URD ' 'dflt' > ) ]
Lookup: 1 1 0 "Medial forms" { "Medial forms-1"  } ['medi' ('DFLT' <'dflt' > 'arab' <'URD ' 'dflt' > ) ]
Lookup: 1 1 0 "Final forms" { "Final forms-1"  } ['fina' ('DFLT' <'dflt' > 'arab' <'URD ' 'dflt' > ) ]

StartChar: comma
Encoding: 44 44 0
Width: 613
Flags: MW
TeX: 101 0
LayerCount: 2
Fore
SplineSet
373 23 m 0
 373 -39 330 -116 247 -200 c 0
 206 -164 l 0
 234 -138 253 -109 265 -90 c 0
 271 -80 283 -61 283 -41 c 0
 283 -17 265 -5 255 2 c 0
 245 9 222 22 222 54 c 0
 222 90 251 122 290 122 c 0
 332 122 373 84 373 23 c 0
EndSplineSet
Validated: 1
EndChar

StartChar: semicolon
Encoding: 59 59 1
Width: 613
Flags: MW
TeX: 118 0
LayerCount: 2
Fore
SplineSet
364 434 m 0
 364 397 332 366 293 366 c 0
 254 366 223 397 223 434 c 0
 223 471 254 502 293 502 c 0
 332 502 364 471 364 434 c 0
EndSplineSet
Refer: 0 44 N 1 0 0 1 0 0 2
Validated: 1
EndChar

StartChar: substitutetwo
Encoding: 9254 9254 2
Width: 613
Flags: MW
TeX: 116 0
LayerCount: 2
Fore
SplineSet
223 53 m 0
 223 90 255 121 294 121 c 0
 333 121 363 90 363 53 c 0
 363 16 333 -15 294 -15 c 0
 255 -15 223 16 223 53 c 0
87 580 m 0
 87 691 164 790 298 790 c 0
 387 790 475 746 527 666 c 0
 467 609 l 0
 430 672 366 712 306 712 c 0
 235 712 181 656 181 586 c 0
 181 508 243 460 279 421 c 0
 331 363 334 321 334 268 c 0
 334 219 l 0
 257 219 l 0
 257 268 l 0
 257 310 254 346 205 389 c 0
 166 424 87 469 87 580 c 0
EndSplineSet
EndChar

StartChar: uniFE80
Encoding: 65152 65152 3
Width: 613
Flags: MW
AnchorPoint: "rtl-above" 332 578 basechar 0
AnchorPoint: "rtl-below" 290 1 basechar 0
LayerCount: 2
Fore
SplineSet
221 47 m 1
 210 129 l 1
 230 131 254 138 282 146 c 0
 306 153 326 162 343 174 c 1
 294 182 262 199 245 224 c 0
 229 251 220 277 219 304 c 0
 220 324 223 348 230 372 c 0
 241 413 262 443 295 463 c 0
 329 483 362 495 392 495 c 0
 428 495 474 490 504 480 c 1
 475 391 l 2
 474 390 472 391 470 392 c 0
 461 395 464 402 453 406 c 0
 443 409 431 410 408 410 c 0
 392 410 375 404 358 395 c 0
 323 379 306 351 306 313 c 0
 306 274 340 247 410 230 c 0
 429 225 448.209092997 224.227652124 468 230 c 0
 492 237 501 242 509 245 c 1
 551 183 l 1
 521 157 453.172746433 125.560810299 385 99 c 0
 308 69 253 52 221 47 c 1
EndSplineSet
EndChar

StartChar: uniFE8D
Encoding: 65165 65165 16
Width: 613
Flags: MW
AnchorPoint: "rtl-above" 306 853 basechar 0
AnchorPoint: "rtl-below" 304 -39 basechar 0
LayerCount: 2
Fore
SplineSet
348 752 m 2
 348 0 l 1
 264 0 l 1
 264 778 l 1
 354 778 l 17
 355 776 355 775 355 773 c 0
 355 764 348 764 348 752 c 2
EndSplineSet
EndChar

StartChar: uniFE8E
Encoding: 65166 65166 17
Width: 613
Flags: MW
AnchorPoint: "rtl-above" 288 888 basechar 0
AnchorPoint: "rtl-below" 343 -86 basechar 0
LayerCount: 2
Fore
SplineSet
296 183 m 2
 296 778 l 1
 380 778 l 1
 380 189 l 2
 380 154 388 128 405 111 c 0
 420 96 457 89 517 89 c 2
 625 89 l 1
 625 0 l 1
 493 0 l 2
 418 0 367 15 340 46 c 0
 311 80 296 126 296 183 c 2
EndSplineSet
EndChar

StartChar: uniFEA1
Encoding: 65185 65185 36
Width: 615
Flags: MW
AnchorPoint: "rtl-above" 263 559 basechar 0
AnchorPoint: "rtl-below" 253 -278 basechar 0
LayerCount: 2
Fore
SplineSet
78 325 m 0
 67 320 69 313 61 310 c 0
 59 309 57 308 56 309 c 2
 21 392 l 1
 90 417 213 432 278 432 c 0
 375 432 457 423 522 405 c 1
 522 331 l 1
 423 336 337 307 263 246 c 0
 188 183 150 112 150 30 c 0
 150 -13 161 -52 184 -84 c 0
 228 -143 298 -172 394 -172 c 0
 457 -172 498 -156 553 -133 c 1
 596 -200 l 1
 545 -233 479 -249 396 -250 c 0
 276 -251 188 -218 132 -153 c 0
 88 -102 66 -40 66 34 c 0
 66 119 103 200 177 276 c 0
 211 310 252 337 298 352 c 1
 262 354 214 351 157 342 c 0
 112 335 97 331 78 325 c 0
EndSplineSet
EndChar

StartChar: uniFEA2
Encoding: 65186 65186 37
Width: 613
Flags: MW
AnchorPoint: "rtl-above" 226 603 basechar 0
AnchorPoint: "rtl-below" 255 -317 basechar 0
LayerCount: 2
Fore
SplineSet
614 89 m 2
 634 89 l 1
 634 0 l 1
 610 0 l 2
 569 0 528 26 488 77 c 0
 461 110 437 153 417 206 c 0
 417 208 403 240 376 301 c 1
 334 292 297 274 263 246 c 0
 188 186 150 114 150 30 c 0
 150 -16 161 -53 184 -84 c 0
 228 -143 298 -172 394 -172 c 0
 457 -172 499 -155 553 -133 c 1
 596 -200 l 1
 545 -233 479 -249 396 -250 c 0
 276 -251 188 -218 132 -153 c 0
 88 -102 66 -40 66 34 c 0
 66 119 103 200 177 276 c 0
 211 310 252 337 298 352 c 1
 262 354 214 351 157 342 c 0
 112 335 97 330 78 325 c 0
 67 320 69 313 61 310 c 0
 59 309 57 308 56 309 c 2
 21 392 l 1
 75 416 213 432 278 432 c 0
 375 432 457 423 522 405 c 1
 522 331 l 1
 484 328 461 326 450 323 c 1
 451 321 466 278 466 278 c 1
 486 223 508 181 530 150 c 0
 559 110 587 89 614 89 c 2
EndSplineSet
EndChar

StartChar: uniFEA3
Encoding: 65187 65187 38
Width: 613
Flags: MW
AnchorPoint: "rtl-above" 149 586 basechar 0
AnchorPoint: "rtl-below" 154 -63 basechar 0
LayerCount: 2
Fore
SplineSet
425 270 m 1
 395 279 364 286 330 294 c 0
 301 301 257 305 198 311 c 0
 170 314 144 318 91 315 c 0
 79 314 80 306 71 305 c 0
 69 305 67 305 66 306 c 2
 55 395 l 1
 76 403 125 404 150 404 c 0
 204 404 260 398 317 386 c 0
 404 369 484 344 556 311 c 1
 556 241 l 1
 530 233 502 221 475 204 c 0
 415 167 374 139 352 120 c 0
 302 75 266 49 246 42 c 0
 170 14 106 0 52 0 c 2
 -12 0 l 1
 -12 89 l 1
 38 89 l 2
 119 89 180 100 219 124 c 0
 253 143 289 173 329 210 c 0
 363 240 395 260 425 270 c 1
EndSplineSet
EndChar

StartChar: uniFEA4
Encoding: 65188 65188 39
Width: 613
Flags: MW
AnchorPoint: "rtl-above" 196 578 basechar 0
AnchorPoint: "rtl-below" 170 -71 basechar 0
LayerCount: 2
Fore
SplineSet
408 163 m 1
 383 147 365 133 352 120 c 0
 303 75 267 49 246 42 c 0
 170 14 106 0 52 0 c 2
 -12 0 l 1
 -12 89 l 1
 38 89 l 2
 119 89 180 100 219 124 c 0
 253 143 289 173 329 210 c 0
 363 240 395 260 425 270 c 1
 395 279 364 286 330 294 c 0
 301 301 257 305 198 311 c 0
 170 314 144 317 91 314 c 0
 79 313 80 306 71 305 c 0
 69 305 67 305 66 306 c 2
 55 395 l 1
 76 403 125 404 150 404 c 0
 204 404 260 398 317 386 c 0
 404 369 484 344 556 311 c 1
 556 241 l 1
 534 234 510 224 484 210 c 1
 502 183 516 163 526 151 c 0
 562 110 588 89 606 89 c 2
 636 89 l 1
 636 0 l 1
 596 0 l 2
 545 0 499 28 458 84 c 0
 446 102 429 128 408 163 c 1
EndSplineSet
EndChar

StartChar: uniFEA9
Encoding: 65193 65193 44
Width: 613
Flags: MW
AnchorPoint: "rtl-above" 233 548 basechar 0
AnchorPoint: "rtl-below" 252 -66 basechar 0
LayerCount: 2
Fore
SplineSet
296 72 m 0
 355 89 389 115 400 152 c 0
 403 161 404 173 404 186 c 0
 404 217 395 249 374 284 c 0
 350 324 319 361 289 394 c 1
 345 454 l 2
 346 454 349 453 350 452 c 0
 357 446 351 440 360 432 c 0
 396 397 427 358 450 314 c 0
 477 263 490 219 490 184 c 0
 490 156 487 131 479 108 c 0
 453 39 397 -3 311 -16 c 0
 297 -19 273 -20 241 -19 c 0
 190 -19 148 -13 114 0 c 1
 114 88 l 1
 153 74 194 66 238 66 c 0
 265 67 285 69 296 72 c 0
EndSplineSet
EndChar

StartChar: uniFEAA
Encoding: 65194 65194 45
Width: 613
Flags: MW
AnchorPoint: "rtl-above" 257 604 basechar 0
AnchorPoint: "rtl-below" 286 -82 basechar 0
LayerCount: 2
Fore
SplineSet
490 184 m 0
 490 161 508 140 533 113 c 0
 548 97 574 89 610 89 c 2
 624 89 l 1
 624 0 l 1
 583 0 l 2
 530 0 487 23 455 66 c 1
 424 23 376 -5 311 -16 c 0
 297 -19 273 -20 241 -19 c 0
 190 -19 148 -13 114 0 c 1
 114 88 l 1
 153 74 194 66 238 66 c 0
 265 67 285 69 296 72 c 0
 353 87 388 114 400 152 c 0
 403 161 404 173 404 186 c 0
 404 217 394 249 374 284 c 0
 351 323 335 342 280 403 c 1
 335 454 l 1
 381 419 426 357 450 314 c 0
 477 265 490 221 490 184 c 0
EndSplineSet
EndChar

StartChar: uniFEAD
Encoding: 65197 65197 48
Width: 613
Flags: MW
AnchorPoint: "rtl-above" 259 366 basechar 0
AnchorPoint: "rtl-below" 278 -272 basechar 0
LayerCount: 2
Fore
SplineSet
450 77 m 0
 454 96 457 118 457 142 c 0
 457 184 449 221 433 266 c 1
 509 299 l 2
 510 298 511 297 512 295 c 0
 516 287 509 284 514 273 c 0
 531 234 539 192 539 148 c 0
 539 121 538 97 535 76 c 0
 522 -36 461 -119 353 -175 c 0
 261 -223 134 -249 -28 -252 c 1
 -28 -164 l 1
 120 -164 231 -143 304 -100 c 0
 390 -51 439 7 450 77 c 0
EndSplineSet
EndChar

StartChar: uniFEAE
Encoding: 65198 65198 49
Width: 613
Flags: MW
AnchorPoint: "rtl-above" 231 372 basechar 0
AnchorPoint: "rtl-below" 191 -294 basechar 0
LayerCount: 2
Fore
SplineSet
382 259 m 1
 457 289 l 1
 467 249 476 210 477 201 c 0
 479 167 494 137 520 111 c 0
 535 96 560 89 594 89 c 2
 624 89 l 1
 624 0 l 1
 567 0 l 2
 523 0 492 11 473 34 c 1
 455 -50 398 -120 299 -173 c 0
 203 -224 76 -250 -82 -250 c 1
 -82 -162 l 1
 66 -162 177 -141 250 -98 c 0
 336 -49 385 10 396 79 c 0
 400 98 403 120 403 144 c 0
 403 186 397 214 382 259 c 1
EndSplineSet
EndChar

StartChar: uniFEB1
Encoding: 65201 65201 52
Width: 613
Flags: MW
AnchorPoint: "rtl-above" 303 507 basechar 0
AnchorPoint: "rtl-below" 308 -214 basechar 0
LayerCount: 2
Fore
SplineSet
190 32 m 1
 187 -28 181 -72 171 -101 c 0
 157 -141 141 -174 121 -200 c 0
 97 -231 67 -246 32 -246 c 0
 2 -246 -31 -229 -64 -196 c 0
 -104 -156 -121 -102 -114 -32 c 0
 -106 46 -89 121 -65 163 c 1
 -1 132 l 1
 -23 76 -40 14 -38 -32 c 0
 -35 -92 -29 -129 -18 -143 c 0
 -1 -164 16 -174 32 -173 c 0
 51 -173 68 -161 86 -136 c 0
 97 -118 107 -89 117 -47 c 0
 125 -11 130 35 129 90 c 0
 129 121 126 152 121 183 c 2
 100 300 l 1
 174 300 l 1
 183 222 l 2
 188 171 195 141 202 132 c 0
 219 104 236 90 249 89 c 0
 264 88 281 108 297 152 c 0
 310 189 317 238 317 300 c 1
 394 300 l 1
 393 247 398 198 411 151 c 0
 423 109 435 87 449 87 c 0
 487 87 506 135 506 228 c 2
 506 375 l 1
 588 375 l 2
 589 374 589 372 589 370 c 0
 589 361 582 361 582 349 c 2
 582 204 l 2
 582 155 572 103 551 50 c 0
 540 22 521 0 490 -12 c 0
 486 -14 469 -14 442 -14 c 0
 420 -14 407 -11 400 -4 c 0
 379 19 364 53 354 97 c 1
 342 58 324 29 300 11 c 0
 282 -1 262 -8 240 -9 c 0
 224 -10 207 3 190 32 c 1
EndSplineSet
Substitution2: "Forms before tail fragment-1" uniFEB1.alt
EndChar

StartChar: uniFEB2
Encoding: 65202 65202 53
Width: 613
Flags: MW
AnchorPoint: "rtl-above" 229 476 basechar 0
AnchorPoint: "rtl-below" 165 -246 basechar 0
LayerCount: 2
Fore
SplineSet
404 -14 m 24
 384 -14 369 -11 361 -4 c 0
 340 19 325 53 315 97 c 1
 303 58 285 29 261 11 c 0
 243 -1 224 -8 201 -9 c 0
 185 -10 169 3 152 32 c 1
 149 -28 142 -72 132 -101 c 0
 120 -141 103 -174 82 -200 c 0
 58 -231 28 -246 -7 -246 c 0
 -37 -246 -69 -229 -102 -196 c 0
 -142 -156 -159 -102 -152 -32 c 0
 -144 46 -128 121 -102 163 c 1
 -39 133 l 1
 -64 70 -79 14 -77 -32 c 0
 -74 -92 -67 -129 -56 -143 c 0
 -40 -164 -24 -174 -7 -173 c 0
 11 -173 30 -161 47 -136 c 0
 59 -118 70 -89 79 -47 c 0
 87 -11 91 35 91 90 c 0
 91 121 88 152 82 183 c 2
 81 183 76 210 61 300 c 1
 61 300 148 300 136 300 c 1
 145 222 l 2
 150 171 157 141 164 132 c 0
 181 104 197 90 210 89 c 0
 226 88 242 108 258 152 c 0
 271 189 278 238 278 300 c 1
 355 300 l 1
 354 247 359 198 372 151 c 0
 384 109 397 87 411 87 c 0
 449 87 467 135 467 228 c 2
 467 375 l 1
 543 375 l 1
 543 375 543 179 543 201 c 2
 543 155 550 126 564 113 c 0
 579 97 598 89 620 89 c 2
 624 89 l 1
 624 0 l 1
 593 0 l 2
 558 0 529 17 508 50 c 1
 497 16 480 -5 456 -12 c 0
 447 -14 430 -14 404 -14 c 24
EndSplineSet
Substitution2: "Forms before tail fragment-1" uniFEB2.alt
EndChar

StartChar: uniFEB3
Encoding: 65203 65203 54
Width: 613
Flags: MW
AnchorPoint: "rtl-above" 284 496 basechar 0
AnchorPoint: "rtl-below" 142 -74 basechar 0
LayerCount: 2
Fore
SplineSet
236 89 m 0
 260 89 281 108 295 147 c 0
 308 184 314 233 314 297 c 1
 391 297 l 1
 390 244 395 194 408 147 c 0
 420 105 433 84 447 84 c 0
 485 84 503 132 503 225 c 2
 503 372 l 1
 586 372 l 2
 587 371 587 369 587 367 c 0
 587 358 580 358 580 346 c 2
 580 201 l 2
 580 152 570 99 549 46 c 0
 538 18 518 -3 487 -15 c 0
 483 -17 467 -19 440 -19 c 0
 418 -19 404 -15 397 -7 c 0
 376 16 361 50 351 94 c 1
 339 55 321 26 297 8 c 0
 279 -5 259 -12 237 -12 c 0
 224 -12 203 -1 174 21 c 0
 160 32 152 47 148 69 c 1
 141 50 126 33 103 18 c 0
 83 6 56 0 23 0 c 2
 -12 0 l 1
 -12 89 l 1
 9 89 l 2
 35 89 54 95 66 107 c 0
 89 131 101 163 101 204 c 2
 101 300 l 1
 177 300 l 1
 177 222 l 2
 177 195 182 165 191 131 c 0
 198 103 212 89 236 89 c 0
EndSplineSet
EndChar

StartChar: uniFEB4
Encoding: 65204 65204 55
Width: 613
Flags: MW
AnchorPoint: "rtl-above" 252 484 basechar 0
AnchorPoint: "rtl-below" 128 -79 basechar 0
LayerCount: 2
Fore
SplineSet
354 297 m 1
 354 244 360 193 371 147 c 0
 380 105 395 84 414 84 c 0
 450 84 468 132 468 225 c 2
 468 372 l 1
 544 372 l 1
 544 372 544 176 544 198 c 2
 544 152 551 123 565 110 c 0
 581 94 596 86 607 86 c 2
 625 86 l 1
 625 -3 l 1
 594 -3 l 2
 559 -3 530 13 509 46 c 1
 490 15 470 -5 451 -14 c 0
 447 -17 431 -19 407 -19 c 0
 380 -19 357 -6 339 20 c 0
 326 37 318 61 314 94 c 1
 303 55 284 26 260 8 c 0
 242 -5 225 -12 211 -12 c 0
 191 -12 176 -4 164 15 c 0
 153 34 144 52 135 69 c 1
 129 51 112 34 87 18 c 0
 67 6 46 0 24 0 c 2
 -12 0 l 1
 -12 89 l 1
 10 89 l 2
 30 89 45 95 55 107 c 0
 77 133 89 165 89 204 c 2
 89 300 l 1
 164 300 l 1
 164 222 l 2
 164 195 168 165 177 131 c 0
 184 103 196 89 210 89 c 16
 226 89 242 108 257 147 c 0
 270 184 277 234 277 297 c 1
 354 297 l 1
EndSplineSet
EndChar

StartChar: uniFEB9
Encoding: 65209 65209 60
Width: 613
Flags: MW
AnchorPoint: "rtl-above" 153 477 basechar 0
AnchorPoint: "rtl-below" 418 -132 basechar 0
LayerCount: 2
Fore
SplineSet
288 89 m 1
 352 89 l 2
 401 89 439 98 466 114 c 0
 503 138 522 162 522 187 c 0
 522 203 515 217 501 230 c 0
 488 241 471 247 449 247 c 0
 425 247 395 228 359 190 c 0
 333 164 309 130 288 89 c 1
223 140 m 1
 248 185 270 216 285 236 c 0
 332 297 382 328 433 328 c 0
 488 328 532 315 562 288 c 0
 591 264 606 231 606 190 c 0
 606 127 574 77 512 40 c 0
 466 14 425 0 387 0 c 2
 278 0 l 2
 266 0 251 5 233 15 c 0
 218 24 211 31 211 36 c 1
 211 -28 203 -81 186 -123 c 0
 170 -167 153 -193 139 -203 c 0
 105 -232 75 -246 54 -246 c 0
 11 -246 -25 -232 -55 -202 c 0
 -97 -157 -119 -103 -119 -37 c 0
 -119 25 -96 101 -54 159 c 1
 6 123 l 1
 -23 64 -40 15 -40 -37 c 0
 -40 -86 -29 -119 -8 -136 c 0
 10 -149 31 -155 52 -154 c 0
 76 -153 93 -141 105 -122 c 0
 129 -83 140 -40 139 7 c 0
 137 40 135 65 132 82 c 0
 120 159 113 208 108 231 c 1
 206 225 l 1
 206 219 191 206 197 185 c 1
 200 172 209 157 223 140 c 1
EndSplineSet
Substitution2: "Forms before tail fragment-1" uniFEB9.alt
EndChar

StartChar: uniFEBA
Encoding: 65210 65210 61
Width: 613
Flags: MW
AnchorPoint: "rtl-above" 102 410 basechar 0
AnchorPoint: "rtl-below" 130 -276 basechar 0
LayerCount: 2
Fore
SplineSet
248 89 m 1
 313 89 l 2
 362 89 401 98 427 114 c 0
 464 138 482 162 482 187 c 0
 482 203 475 217 461 230 c 0
 448 241 432 247 410 247 c 0
 387 247 357 228 320 190 c 0
 294 164 270 130 248 89 c 1
566 190 m 0
 566 172 561 151 550 124 c 1
 555 122 560 118 565 113 c 0
 581 97 594 89 604 89 c 2
 623 89 l 1
 623 0 l 1
 594 0 l 2
 577 0 550 17 515 50 c 2
 501 63 l 1
 440 22 391 0 348 0 c 2
 240 0 l 2
 227 0 211 5 194 15 c 0
 179 24 172 31 172 36 c 1
 172 -28 164 -81 147 -123 c 0
 130 -167 114 -193 100 -203 c 0
 64 -232 37 -246 16 -246 c 0
 -27 -246 -63 -232 -93 -202 c 0
 -136 -160 -158 -105 -158 -37 c 0
 -158 25 -137 102 -92 160 c 1
 -33 123 l 1
 -62 64 -78 15 -78 -37 c 0
 -78 -86 -68 -119 -47 -136 c 0
 -28 -149 -9 -155 12 -154 c 0
 37 -153 54 -141 66 -122 c 0
 87 -86 98 -52 98 -6 c 0
 98 32 97 61 94 82 c 0
 83 154 74 202 69 225 c 1
 150 225 l 1
 150 220 152 207 156 187 c 0
 160 174 171 158 185 140 c 1
 210 185 231 216 246 236 c 0
 296 297 345 328 395 328 c 0
 450 328 494 315 524 288 c 0
 553 262 566 230 566 190 c 0
EndSplineSet
Substitution2: "Forms before tail fragment-1" uniFEBA.alt
EndChar

StartChar: uniFEBB
Encoding: 65211 65211 62
Width: 613
Flags: MW
AnchorPoint: "rtl-above" 232 460 basechar 0
AnchorPoint: "rtl-below" 140 -77 basechar 0
LayerCount: 2
Fore
SplineSet
288 89 m 1
 353 89 l 2
 402 89 441 98 467 114 c 0
 504 138 522 162 522 187 c 0
 522 203 515 217 501 230 c 0
 488 241 472 247 450 247 c 0
 427 247 397 228 360 190 c 0
 334 164 310 130 288 89 c 1
279 0 m 2
 259 0 236 8 208 23 c 0
 187 36 169 53 156 74 c 1
 120 25 89 0 59 0 c 2
 -11 0 l 1
 -11 89 l 1
 29 89 l 2
 44 89 57 96 69 111 c 0
 91 140 103 171 103 204 c 2
 103 261 l 1
 103 261 203 261 191 261 c 1
 191 222 l 2
 191 189 204 164 226 141 c 1
 251 186 272 217 286 236 c 0
 335 297 384 328 434 328 c 0
 489 328 533 315 563 288 c 0
 592 264 606 231 606 190 c 0
 606 127 574 77 512 40 c 0
 467 14 426 0 388 0 c 2
 279 0 l 2
EndSplineSet
EndChar

StartChar: uniFEBC
Encoding: 65212 65212 63
Width: 613
Flags: MW
AnchorPoint: "rtl-above" 190 449 basechar 0
AnchorPoint: "rtl-below" 144 -76 basechar 0
LayerCount: 2
Fore
SplineSet
247 89 m 1
 312 89 l 2
 361 89 400 98 426 114 c 0
 463 138 481 162 481 187 c 0
 481 203 474 217 460 230 c 0
 447 241 431 247 409 247 c 0
 386 247 356 228 319 190 c 0
 293 164 269 130 247 89 c 1
238 0 m 2
 217 0 194 8 167 23 c 0
 147 36 129 53 115 75 c 1
 79 26 51 0 30 0 c 2
 -11 0 l 1
 -11 89 l 1
 1 89 l 2
 12 89 25 98 39 113 c 0
 55 130 62 160 62 204 c 2
 62 261 l 1
 150 261 l 1
 150 222 l 2
 150 195 160 168 185 141 c 1
 210 186 231 217 245 236 c 0
 294 297 343 328 393 328 c 0
 448 328 492 315 522 288 c 0
 551 264 565 231 565 190 c 0
 565 172 559 151 548 124 c 1
 553 122 559 118 564 113 c 0
 580 97 594 89 604 89 c 2
 603 89 608 89 623 89 c 1
 623 0 l 1
 594 0 l 2
 578 0 551 17 514 50 c 2
 500 63 l 1
 440 22 388 0 347 0 c 2
 238 0 l 2
EndSplineSet
EndChar

StartChar: uniFEC1
Encoding: 65217 65217 68
Width: 613
Flags: MW
AnchorPoint: "rtl-above" 109 859 basechar 0
AnchorPoint: "rtl-below" 165 -75 basechar 0
LayerCount: 2
Fore
SplineSet
373 0 m 2
 115 0 l 1
 3 0 l 1
 3 89 l 1
 115 89 l 1
 115 778 l 1
 205 778 l 2
 206 777 206 775 206 773 c 0
 206 764 199 764 199 752 c 2
 199 130 l 1
 226 176 248 209 264 230 c 0
 315 295 366 327 419 327 c 0
 475 327 519 314 547 287 c 0
 576 262 591 229 591 189 c 0
 591 125 560 74 499 38 c 0
 458 13 416 0 373 0 c 2
273 89 m 1
 337 89 l 2
 387 89 424 97 450 113 c 0
 487 137 507 162 507 186 c 0
 507 202 499 215 485 228 c 0
 472 239 455 246 433 246 c 0
 409 246 380 227 344 189 c 0
 319 165 296 131 273 89 c 1
EndSplineSet
EndChar

StartChar: uniFEC2
Encoding: 65218 65218 69
Width: 613
Flags: MW
AnchorPoint: "rtl-above" 95 879 basechar 0
AnchorPoint: "rtl-below" 98 -76 basechar 0
LayerCount: 2
Fore
SplineSet
575 189 m 0
 575 172 567 151 551 124 c 1
 573 100 589 89 602 89 c 2
 624 89 l 1
 624 0 l 1
 600 0 l 2
 568 0 537 13 507 40 c 2
 492 52 l 1
 451 17 405 0 357 0 c 2
 100 0 l 1
 10 0 l 1
 10 89 l 1
 100 89 l 1
 100 778 l 1
 189 778 l 2
 190 777 190 775 190 773 c 0
 190 764 183 764 183 752 c 2
 183 130 l 1
 210 176 232 209 248 230 c 0
 300 295 352 327 403 327 c 0
 459 327 503 314 531 287 c 0
 560 260 575 228 575 189 c 0
257 89 m 1
 321 89 l 2
 371 89 409 97 435 113 c 0
 472 137 491 162 491 186 c 0
 491 202 484 215 470 228 c 0
 457 239 439 246 417 246 c 0
 393 246 364 227 328 189 c 0
 303 165 280 131 257 89 c 1
EndSplineSet
EndChar

StartChar: uniFEC3
Encoding: 65219 65219 70
Width: 613
Flags: MW
AnchorPoint: "rtl-above" 115 876 basechar 0
AnchorPoint: "rtl-below" 110 -76 basechar 0
LayerCount: 2
Fore
SplineSet
373 0 m 2
 115 0 l 1
 -10 0 l 1
 -10 89 l 1
 115 89 l 1
 115 778 l 1
 205 778 l 2
 206 777 206 775 206 773 c 0
 206 764 199 764 199 752 c 2
 199 130 l 1
 226 176 248 209 264 230 c 0
 315 295 366 327 419 327 c 0
 475 327 519 314 547 287 c 0
 576 262 591 229 591 189 c 0
 591 125 560 74 499 38 c 0
 458 13 416 0 373 0 c 2
273 89 m 1
 337 89 l 2
 387 89 424 97 450 113 c 0
 487 137 507 162 507 186 c 0
 507 202 499 215 485 228 c 0
 472 239 455 246 433 246 c 0
 409 246 380 227 344 189 c 0
 319 165 296 131 273 89 c 1
EndSplineSet
EndChar

StartChar: uniFEC4
Encoding: 65220 65220 71
Width: 613
Flags: MW
AnchorPoint: "rtl-above" 96 882 basechar 0
AnchorPoint: "rtl-below" 94 -74 basechar 0
LayerCount: 2
Fore
SplineSet
575 189 m 0
 575 173 567 151 551 124 c 1
 573 100 589 89 602 89 c 2
 624 89 l 1
 624 0 l 1
 600 0 l 2
 568 0 537 13 507 40 c 2
 492 52 l 1
 451 17 405 0 357 0 c 2
 100 0 l 1
 -11 0 l 1
 -11 89 l 1
 100 89 l 1
 100 778 l 1
 189 778 l 2
 190 777 190 775 190 773 c 0
 190 764 183 764 183 752 c 2
 183 130 l 1
 210 176 232 209 248 230 c 0
 300 295 352 327 403 327 c 0
 459 327 502 314 531 287 c 0
 560 261 575 228 575 189 c 0
257 89 m 1
 321 89 l 2
 371 89 409 97 435 113 c 0
 472 137 491 162 491 186 c 0
 491 202 484 215 470 228 c 0
 457 239 439 246 417 246 c 0
 393 246 364 227 328 189 c 0
 303 165 280 131 257 89 c 1
EndSplineSet
EndChar

StartChar: uniFEC9
Encoding: 65225 65225 76
Width: 613
Flags: MW
AnchorPoint: "rtl-above" 202 662 basechar 0
AnchorPoint: "rtl-below" 334 -280 basechar 0
LayerCount: 2
Fore
SplineSet
166 -93 m 0
 206 -146 285 -172 404 -172 c 0
 466 -172 509 -155 558 -135 c 1
 602 -200 l 1
 553 -233 488 -250 407 -250 c 0
 266 -250 168 -219 112 -156 c 0
 79 -119 63 -67 63 0 c 0
 62 58 77 103 106 137 c 0
 149 188 176 207 207 216 c 1
 189 217 172 222 157 230 c 0
 127 248 111 280 111 325 c 0
 111 396 146 453 218 497 c 0
 255 518 314 529 394 529 c 1
 394 440 l 2
 393 439 391 439 389 439 c 0
 380 439 380 447 368 447 c 0
 341 448 277 438 239 418 c 0
 207 401 190 374 190 336 c 0
 190 311 199 293 216 285 c 0
 231 277 246 273 262 273 c 0
 275 273 289 276 302 282 c 0
 355 305 415 320 499 331 c 1
 508 243 l 1
 418 234 334 203 254 154 c 0
 183 109 146 55 146 -5 c 0
 146 -47 153 -76 166 -93 c 0
EndSplineSet
EndChar

StartChar: uniFECA
Encoding: 65226 65226 77
Width: 613
Flags: MW
AnchorPoint: "rtl-above" 203 562 basechar 0
AnchorPoint: "rtl-below" 178 -276 basechar 0
LayerCount: 2
Fore
SplineSet
77 0 m 0
 77 69 102 128 168 178 c 1
 147 196 129 216 117 240 c 0
 109 258 104 271 104 279 c 0
 105 290 107 301 111 313 c 0
 116 331 135 349 170 366 c 0
 199 381 233 388 272 388 c 0
 310 388 344 381 373 366 c 0
 406 349 426 331 433 313 c 0
 437 300 439 289 439 279 c 0
 439 257 428 238 405 220 c 0
 363 186 334 167 317 162 c 1
 338 141 364 123 394 110 c 0
 428 96 470 89 520 89 c 2
 632 89 l 1
 632 0 l 1
 528 0 l 2
 420 0 323 39 240 117 c 1
 186 71 159 31 159 -5 c 0
 159 -43 166 -70 180 -90 c 0
 217 -145 294 -173 412 -173 c 0
 476 -173 529 -153 572 -135 c 1
 614 -200 l 1
 563 -233 497 -249 414 -250 c 0
 272 -251 175 -219 124 -157 c 0
 92 -118 77 -66 77 0 c 0
271 300 m 0
 262 300 252 298 242 296 c 0
 226 292 218 286 218 274 c 0
 218 260 230 242 254 221 c 1
 300 240 323 258 324 273 c 0
 325 285 318 292 302 296 c 0
 290 298 280 300 271 300 c 0
EndSplineSet
EndChar

StartChar: uniFECB
Encoding: 65227 65227 78
Width: 613
Flags: MW
AnchorPoint: "rtl-above" 225 678 basechar 0
AnchorPoint: "rtl-below" 248 -56 basechar 0
LayerCount: 2
Fore
SplineSet
28 89 m 2
 81 89 143 105 212 136 c 1
 186 145 166 158 150 177 c 0
 122 210 107 250 107 297 c 0
 107 385 141 450 208 492 c 0
 247 517 309 529 392 529 c 1
 392 442 l 2
 391 441 389 441 387 441 c 0
 378 441 378 449 366 449 c 0
 324 450 266 440 236 417 c 0
 204 393 188 359 188 313 c 0
 188 267 199 237 219 221 c 0
 248 197 272 186 292 186 c 0
 311 186 332 191 356 202 c 2
 490 262 l 1
 523 191 l 1
 296 85 l 2
 175 28 87 0 32 0 c 2
 -12 0 l 1
 -12 89 l 1
 28 89 l 2
EndSplineSet
EndChar

StartChar: uniFECC
Encoding: 65228 65228 79
Width: 613
Flags: MW
AnchorPoint: "rtl-above" 306 578 basechar 0
AnchorPoint: "rtl-below" 301 -60 basechar 0
LayerCount: 2
Fore
SplineSet
306 96 m 1
 239 32 170 0 98 0 c 2
 -12 0 l 1
 -12 89 l 1
 97 89 l 2
 135 89 164 96 185 110 c 0
 206 123 223 136 236 150 c 1
 202 178 175 207 152 237 c 0
 143 250 138 264 138 279 c 0
 138 288 140 299 143 312 c 0
 147 330 166 348 202 366 c 0
 230 381 265 388 306 388 c 0
 347 388 382 381 410 366 c 0
 444 349 464 329 469 311 c 0
 472 299 474 288 474 279 c 0
 474 264 469 250 460 237 c 0
 435 204 407 175 376 150 c 1
 386 139 403 126 427 110 c 0
 447 96 476 89 515 89 c 2
 514 89 551 89 624 89 c 1
 624 0 l 1
 514 0 l 2
 442 0 372 32 306 96 c 1
306 300 m 0
 298 300 289 298 278 296 c 0
 261 292 252 286 252 274 c 0
 252 264 270 242 306 209 c 1
 342 242 360 264 360 274 c 0
 360 285 351 292 334 296 c 0
 324 298 315 300 306 300 c 0
EndSplineSet
EndChar

StartChar: uniFED9
Encoding: 65241 65241 92
Width: 613
Flags: MW
AnchorPoint: "rtl-above" 247 738 basechar 0
AnchorPoint: "rtl-below" 251 -75 basechar 0
LayerCount: 2
Fore
SplineSet
477 140 m 0
 494 158 503 213 503 306 c 2
 503 778 l 1
 593 778 l 2
 594 777 594 775 594 773 c 0
 594 764 588 764 588 752 c 2
 588 306 l 2
 588 188 573 114 544 83 c 0
 501 38 468 11 446 3 c 0
 394 -16 337 -25 278 -25 c 0
 221 -26 165 -16 110 3 c 0
 38 28 2 71 2 130 c 0
 2 155 6 188 14 204 c 1
 92 181 l 1
 90 170 88 158 88 143 c 0
 89 111 115 88 167 73 c 0
 210 61 246 55 276 55 c 0
 319 55 349 59 368 67 c 0
 410 84 446 109 477 140 c 0
316 547 m 1
 316 509 l 1
 292 508 273 505 260 500 c 0
 232 489 219 479 219 468 c 0
 219 458 221 450 224 445 c 0
 228 440 242 435 266 431 c 0
 299 426 315 410 315 383 c 0
 315 346 300 322 272 308 c 0
 245 295 220 289 194 289 c 0
 171 289 151 291 132 294 c 1
 132 335 l 1
 155 332 174 330 189 330 c 0
 210 330 229 334 248 343 c 0
 269 353 280 362 280 372 c 0
 280 385 267 395 238 400 c 0
 214 405 198 413 194 422 c 0
 184 438 180 452 181 466 c 0
 182 491 195 510 219 523 c 0
 247 538 279 546 316 547 c 1
EndSplineSet
EndChar

StartChar: uniFEDA
Encoding: 65242 65242 93
Width: 613
Flags: MW
AnchorPoint: "rtl-above" 242 767 basechar 0
AnchorPoint: "rtl-below" 238 -88 basechar 0
LayerCount: 2
Fore
SplineSet
264 547 m 1
 264 509 l 1
 239 508 221 505 208 500 c 0
 180 489 168 479 168 468 c 0
 168 458 170 450 174 445 c 0
 178 440 191 435 215 431 c 0
 247 426 263 410 263 383 c 0
 263 346 248 322 220 308 c 0
 193 295 167 289 142 289 c 0
 120 289 100 291 81 294 c 1
 81 335 l 1
 104 332 123 330 138 330 c 0
 158 330 177 334 196 343 c 0
 217 353 228 362 228 372 c 0
 228 385 215 395 187 400 c 0
 163 405 149 413 144 422 c 0
 135 438 131 452 131 466 c 0
 132 491 143 510 167 523 c 0
 195 538 227 546 264 547 c 1
524 778 m 1
 524 192 l 2
 524 155 532 128 548 111 c 0
 563 96 574 89 584 89 c 2
 583 89 593 89 622 89 c 1
 622 0 l 1
 557 0 l 2
 530 0 498 22 458 65 c 1
 426 39 398 18 373 3 c 0
 339 -14 291 -24 227 -25 c 0
 170 -26 114 -16 59 3 c 0
 -14 28 -50 71 -50 130 c 0
 -50 155 -46 188 -38 205 c 1
 42 181 l 1
 39 169 38 158 38 143 c 0
 38 111 63 88 115 73 c 0
 158 61 194 55 224 55 c 0
 262 55 298 62 332 74 c 0
 359 85 387 107 414 140 c 0
 431 163 440 218 440 306 c 2
 440 778 l 1
 524 778 l 1
EndSplineSet
EndChar

StartChar: uniFEDB
Encoding: 65243 65243 94
Width: 613
Flags: MW
AnchorPoint: "rtl-above" 265 758 basechar 0
AnchorPoint: "rtl-below" 96 -63 basechar 0
LayerCount: 2
Fore
SplineSet
199 0 m 2
 -12 0 l 1
 -12 89 l 1
 189 89 l 2
 239 89 271 106 286 142 c 0
 291 154 294 166 294 178 c 0
 294 202 285 225 266 248 c 2
 108 443 l 2
 94 459 87 480 87 508 c 0
 87 517 89 529 93 542 c 0
 104 581 126 609 159 623 c 0
 159 623 252 661 500 764 c 1
 534 686 l 2
 533 685 532 684 530 683 c 0
 522 679 519 686 508 681 c 2
 227 563 l 2
 203 553 188 540 181 527 c 0
 179 523 178 517 178 508 c 0
 177 497 180 486 189 477 c 2
 331 308 l 2
 365 267 382 225 382 184 c 0
 382 147 372 111 351 78 c 0
 320 26 269 0 199 0 c 2
EndSplineSet
EndChar

StartChar: uniFEDC
Encoding: 65244 65244 95
Width: 613
Flags: MW
AnchorPoint: "rtl-above" 275 778 basechar 0
AnchorPoint: "rtl-below" 63 -85 basechar 0
LayerCount: 2
Fore
SplineSet
203 0 m 2
 -11 0 l 1
 -11 89 l 1
 193 89 l 2
 242 89 276 106 291 142 c 0
 296 154 299 166 299 178 c 0
 299 202 289 225 271 248 c 2
 112 443 l 2
 98 459 92 480 92 508 c 0
 92 517 94 529 97 542 c 0
 107 581 129 609 163 623 c 2
 505 765 l 1
 539 686 l 2
 538 685 537 684 535 683 c 0
 527 679 524 686 513 681 c 2
 232 563 l 2
 209 553 192 540 185 527 c 0
 183 523 182 517 182 508 c 0
 182 497 186 486 195 477 c 2
 492 117 l 2
 499 108 509 102 522 97 c 0
 537 92 556 89 577 89 c 2
 624 89 l 1
 624 0 l 1
 554 0 l 2
 533 0 513 4 494 13 c 0
 460 29 437 44 427 56 c 2
 377 119 l 1
 369 102 363 90 357 80 c 0
 325 27 273 0 203 0 c 2
EndSplineSet
EndChar

StartChar: uniFEDD
Encoding: 65245 65245 96
Width: 613
Flags: MW
AnchorPoint: "rtl-above" 479 879 basechar 0
AnchorPoint: "rtl-below" 268 -191 basechar 0
LayerCount: 2
Fore
SplineSet
443 36 m 0
 454 53 459 112 459 213 c 2
 459 778 l 1
 549 778 l 2
 550 777 550 775 550 773 c 0
 550 764 543 764 543 752 c 2
 543 213 l 2
 543 77 534 0 517 -18 c 0
 478 -69 443 -102 413 -116 c 0
 361 -140 311 -152 260 -152 c 0
 235 -152 200 -145 161 -133 c 0
 78 -106 37 -50 37 38 c 0
 37 83 51 136 82 167 c 1
 142 132 l 1
 126 93 119 75 119 38 c 0
 119 -4 148 -37 208 -61 c 0
 219 -65 237 -67 260 -67 c 0
 295 -67 325 -62 354 -52 c 0
 388 -40 418 -10 443 36 c 0
EndSplineSet
EndChar

StartChar: uniFEDE
Encoding: 65246 65246 97
Width: 613
Flags: MW
AnchorPoint: "rtl-above" 232 776 basechar 0
AnchorPoint: "rtl-below" 253 -204 basechar 0
LayerCount: 2
Fore
SplineSet
516 778 m 1
 516 192 l 2
 517 156 524 129 540 111 c 0
 554 96 568 89 583 89 c 2
 582 89 593 89 622 89 c 1
 622 0 l 1
 622 0 551 0 556 0 c 2
 538 0 516 9 487 26 c 1
 482 -5 471 -31 454 -52 c 0
 416 -94 375 -123 332 -138 c 0
 302 -147 269 -152 233 -152 c 0
 208 -152 175 -145 134 -133 c 0
 51 -107 11 -50 9 38 c 0
 8 83 22 135 55 166 c 1
 116 132 l 1
 101 100 92 75 92 38 c 0
 92 -4 123 -37 181 -61 c 0
 193 -65 210 -67 233 -67 c 0
 268 -67 299 -62 328 -52 c 0
 362 -40 391 -10 416 36 c 0
 426 53 431 112 431 213 c 2
 431 778 l 1
 516 778 l 1
EndSplineSet
EndChar

StartChar: uniFEDF
Encoding: 65247 65247 98
Width: 613
Flags: MW
AnchorPoint: "rtl-above" 307 824 basechar 0
AnchorPoint: "rtl-below" 311 -59 basechar 0
LayerCount: 2
Fore
SplineSet
494 183 m 2
 494 126 480 80 451 46 c 0
 424 15 368 0 279 0 c 2
 -12 0 l 1
 -12 89 l 1
 255 89 l 2
 328 89 371 96 386 111 c 0
 402 127 410 153 410 189 c 2
 410 778 l 1
 500 778 l 2
 501 777 501 775 501 773 c 0
 501 764 494 764 494 752 c 2
 494 183 l 2
EndSplineSet
EndChar

StartChar: uniFEE0
Encoding: 65248 65248 99
Width: 613
Flags: MW
AnchorPoint: "rtl-above" 317 863 basechar 0
AnchorPoint: "rtl-below" 308 -70 basechar 0
LayerCount: 2
Fore
SplineSet
307 44 m 1
 281 14 221 0 128 0 c 2
 -12 0 l 1
 -12 89 l 1
 105 89 l 2
 181 89 226 96 241 111 c 0
 257 127 265 153 265 189 c 2
 265 778 l 1
 349 778 l 1
 349 189 l 2
 349 154 357 128 374 111 c 0
 389 96 433 89 509 89 c 2
 624 89 l 1
 624 0 l 1
 485 0 l 2
 394 0 335 14 307 44 c 1
EndSplineSet
EndChar

StartChar: uniFEE1
Encoding: 65249 65249 100
Width: 613
Flags: MW
AnchorPoint: "rtl-above" 338 544 basechar 0
AnchorPoint: "rtl-below" 301 -86 basechar 0
LayerCount: 2
Fore
SplineSet
294 148 m 1
 341 131 371 125 400 125 c 0
 415 125 426 129 433 137 c 0
 451 156 460 176 460 197 c 0
 460 204 459 211 457 219 c 0
 449 252 435 272 413 276 c 0
 400 279 385 281 370 281 c 0
 350 281 335 276 326 268 c 0
 301 244 289 221 289 196 c 0
 289 182 291 165 294 148 c 1
238 83 m 0
 224 91 202 82 175 52 c 0
 167 43 163 26 162 0 c 2
 162 -246 l 1
 68 -246 l 1
 68 0 l 2
 68 56 88 101 128 136 c 0
 149 155 173 164 203 163 c 1
 203 185 203 184 203 206 c 0
 203 255 231 302 286 348 c 0
 311 369 338 380 365 380 c 0
 389 380 414 374 440 362 c 0
 501 333 536 292 545 236 c 0
 548 221 549 205 549 186 c 0
 549 138 534 103 502 83 c 0
 461 55 426 42 399 42 c 0
 338 42 284 56 238 83 c 0
EndSplineSet
EndChar

StartChar: uniFEE2
Encoding: 65250 65250 101
Width: 613
Flags: MW
AnchorPoint: "rtl-above" 322 448 basechar 0
AnchorPoint: "rtl-below" 340 -187 basechar 0
LayerCount: 2
Fore
SplineSet
255 79 m 1
 302 63 331 57 360 57 c 0
 375 57 387 60 394 67 c 0
 412 86 421 106 421 128 c 0
 421 135 420 142 418 150 c 0
 410 182 396 202 374 207 c 0
 361 210 346 211 331 211 c 0
 311 211 296 206 287 198 c 0
 262 175 250 151 250 126 c 0
 250 112 252 96 255 79 c 1
476 26 m 1
 471 21 466 18 462 15 c 0
 417 -13 383 -26 360 -26 c 0
 286 -26 232 -13 199 13 c 0
 190 20 171 11 145 -16 c 0
 137 -25 133 -42 133 -69 c 2
 133 -246 l 1
 39 -246 l 1
 39 -69 l 2
 39 -13 59 32 99 67 c 0
 120 86 142 95 164 95 c 1
 164 116 164 114 164 136 c 0
 164 185 191 232 246 278 c 0
 271 299 299 310 326 310 c 0
 349 310 374 305 401 293 c 0
 457 269 493 226 506 167 c 0
 512 143 521 126 537 112 c 0
 546 104 556 98 570 94 c 0
 581 91 593 89 609 89 c 2
 608 89 613 89 624 89 c 1
 624 0 l 1
 582 0 l 2
 524 0 487 9 476 26 c 1
EndSplineSet
EndChar

StartChar: uniFEE3
Encoding: 65251 65251 102
Width: 613
Flags: MW
AnchorPoint: "rtl-above" 287 451 basechar 0
AnchorPoint: "rtl-below" 293 -122 basechar 0
LayerCount: 2
Fore
SplineSet
427 28 m 0
 395 -6 355 -24 308 -25 c 0
 237 -26 183 -10 146 23 c 1
 128 9 109 0 74 0 c 2
 -11 0 l 1
 -11 89 l 1
 49 89 l 2
 79 90 116 117 116 149 c 0
 123 210 149 253 196 279 c 0
 228 298 257 306 284 306 c 0
 306 306 327 301 349 293 c 0
 412 266 447 225 454 168 c 0
 455 156 455 144 455 131 c 0
 455 85 446 50 427 28 c 0
189 98 m 1
 211 73 250 60 308 59 c 0
 324 59 335 62 340 68 c 0
 358 85 368 108 368 133 c 0
 368 139 367 146 366 151 c 0
 358 183 342 203 322 207 c 0
 309 210 296 212 283 212 c 0
 266 212 250 207 235 199 c 0
 218 189 206 167 200 132 c 0
 197 119 193 108 189 98 c 1
EndSplineSet
EndChar

StartChar: uniFEE4
Encoding: 65252 65252 103
Width: 613
Flags: MW
AnchorPoint: "rtl-above" 306 477 basechar 0
AnchorPoint: "rtl-below" 308 -110 basechar 0
LayerCount: 2
Fore
SplineSet
442 28 m 1
 412 -7 374 -25 326 -25 c 0
 255 -25 200 -10 163 23 c 1
 143 8 123 0 88 0 c 2
 -11 0 l 1
 -11 89 l 1
 62 89 l 2
 93 89 132 116 133 149 c 0
 139 209 165 252 213 279 c 0
 245 298 276 306 302 306 c 0
 325 306 347 301 367 293 c 0
 431 265 466 223 471 168 c 0
 472 154 482 135 499 114 c 0
 513 97 537 89 574 89 c 2
 624 89 l 1
 624 0 l 1
 547 0 l 2
 489 0 454 10 442 28 c 1
207 98 m 1
 229 73 268 60 326 59 c 0
 342 59 353 62 358 68 c 0
 376 85 385 108 385 133 c 0
 385 139 384 146 383 151 c 0
 375 183 360 203 340 207 c 0
 327 210 314 212 301 212 c 0
 284 212 267 207 252 199 c 0
 236 191 226 169 218 132 c 0
 215 119 211 108 207 98 c 1
EndSplineSet
EndChar

StartChar: uniFEE9
Encoding: 65257 65257 108
Width: 613
Flags: MW
AnchorPoint: "rtl-above" 248 508 basechar 0
AnchorPoint: "rtl-below" 280 -114 basechar 0
LayerCount: 2
Fore
SplineSet
259 282 m 0
 236 283 220 267 208 237 c 0
 199 213 194 180 194 137 c 0
 194 108 204 86 224 70 c 0
 244 54 263 47 283 47 c 0
 315 47 347 57 379 77 c 0
 405 93 419 116 419 145 c 0
 419 171 407 196 383 220 c 0
 340 262 299 283 259 282 c 0
243 367 m 0
 306 367 368 340 429 287 c 0
 476 246 500 200 500 151 c 0
 500 85 475 39 426 14 c 0
 370 -14 323 -28 281 -29 c 0
 250 -30 222 -24 195 -12 c 0
 139 13 111 65 112 145 c 0
 113 204 120 247 132 274 c 0
 160 335 196 366 243 367 c 0
EndSplineSet
EndChar

StartChar: uniFEEA
Encoding: 65258 65258 109
Width: 613
Flags: MW
AnchorPoint: "rtl-above" 290 427 basechar 0
AnchorPoint: "rtl-below" 308 -78 basechar 0
LayerCount: 2
Fore
SplineSet
392 135 m 1
 387 149 382 164 378 180 c 0
 374 197 370 222 366 256 c 1
 325 252 290 239 262 215 c 0
 224 186 206 161 207 139 c 0
 207 128 221 118 249 108 c 0
 279 98 327 106 392 135 c 1
359 323 m 1
 358 336 357 350 356 364 c 1
 441 364 l 1
 441 310 447 254 459 195 c 0
 466 163 478 134 497 107 c 0
 506 95 530 89 568 89 c 2
 624 89 l 1
 624 0 l 1
 545 0 l 2
 516 0 489 9 463 26 c 0
 447 39 430 55 421 69 c 1
 374 45 325 33 273 33 c 0
 252 33 234 36 217 41 c 0
 160 57 132 88 131 136 c 0
 131 191 163 239 229 281 c 0
 265 304 308 318 359 323 c 1
EndSplineSet
EndChar

StartChar: uniFEEB
Encoding: 65259 65259 110
Width: 613
Flags: MW
AnchorPoint: "rtl-above" 219 553 basechar 0
AnchorPoint: "rtl-below" 219 -114 basechar 0
LayerCount: 2
Fore
SplineSet
344 258 m 1
 347 246 349 233 349 220 c 0
 350 172 332 128 298 89 c 0
 294 85 290 81 285 74 c 1
 303 56 321 48 337 48 c 0
 381 48 405 59 410 82 c 0
 413 93 414 103 413 114 c 0
 412 136 407 159 396 184 c 0
 386 208 369 233 344 258 c 1
60 89 m 2
 77 89 101 92 130 96 c 1
 114 133 104 161 99 184 c 0
 92 211 89 235 89 256 c 0
 89 285 97 313 112 340 c 0
 130 371 152 384 177 379 c 1
 162 393 136 405 89 412 c 1
 110 500 l 2
 111 501 113 500 115 500 c 0
 124 498 122 490 134 487 c 0
 187 465 248 432 320 374 c 0
 408 303 462 231 482 160 c 0
 487 143 490 124 490 105 c 0
 490 70 484 44 472 24 c 0
 448 -14 409 -32 351 -32 c 0
 308 -32 261 -14 211 22 c 1
 169 8 124 0 76 0 c 2
 -12 0 l 1
 -12 89 l 1
 60 89 l 2
219 130 m 1
 231 139 244 155 256 177 c 0
 270 202 277 226 277 246 c 0
 277 262 274 276 269 289 c 0
 262 307 246 316 226 316 c 0
 204 316 187 309 179 293 c 0
 172 278 168 264 168 252 c 0
 167 242 168 231 171 219 c 0
 178 177 195 147 219 130 c 1
EndSplineSet
EndChar

StartChar: uniFEEC
Encoding: 65260 65260 111
Width: 613
Flags: MW
AnchorPoint: "rtl-above" 251 385 basechar 0
AnchorPoint: "rtl-below" 271 -279 basechar 0
LayerCount: 2
Fore
SplineSet
238 89 m 1
 248 89 l 2
 260 89 283 102 316 127 c 0
 357 158 378 182 378 198 c 0
 378 235 363 255 334 255 c 0
 308 254 282 230 257 183 c 0
 244 159 238 128 238 89 c 1
152 89 m 1
 155 183 179 245 219 282 c 0
 257 318 295 336 336 336 c 0
 380 336 412 319 435 286 c 0
 449 264 457 235 457 199 c 0
 457 162 428 125 369 89 c 1
 624 89 l 1
 624 0 l 1
 369 0 l 1
 428 -36 457 -73 457 -110 c 0
 457 -147 449 -176 435 -197 c 0
 413 -230 381 -247 336 -247 c 0
 295 -247 257 -229 219 -193 c 0
 176 -151 155 -87 152 0 c 1
 -12 0 l 1
 -12 89 l 1
 152 89 l 1
238 0 m 1
 238 -39 244 -70 257 -94 c 0
 282 -141 308 -165 334 -166 c 0
 363 -166 378 -146 378 -109 c 0
 378 -93 357 -69 316 -38 c 0
 283 -13 260 0 248 0 c 2
 238 0 l 1
EndSplineSet
EndChar

StartChar: uniFEED
Encoding: 65261 65261 112
Width: 613
Flags: MW
AnchorPoint: "rtl-above" 312 481 basechar 0
AnchorPoint: "rtl-below" 296 -275 basechar 0
LayerCount: 2
Fore
SplineSet
364 228 m 0
 343 228 324 219 309 199 c 0
 301 188 297 177 297 164 c 0
 296 144 304 127 320 112 c 0
 335 98 377 90 446 89 c 1
 446 153 431 195 401 216 c 0
 388 224 376 228 364 228 c 0
529 92 m 0
 529 -6 500 -84 443 -142 c 0
 430 -155 391 -177 323 -207 c 0
 260 -236 164 -250 36 -250 c 1
 36 -162 l 1
 155 -162 244 -149 299 -123 c 0
 376 -88 422 -47 438 2 c 1
 396 3 369 5 357 6 c 0
 310 15 280 26 265 40 c 0
 226 74 207 114 207 158 c 0
 207 228 243 279 314 309 c 0
 333 317 350 321 369 321 c 0
 394 322 419 313 443 296 c 0
 487 265 513 227 520 181 c 0
 526 147 529 117 529 92 c 0
EndSplineSet
EndChar

StartChar: uniFEEE
Encoding: 65262 65262 113
Width: 613
Flags: MW
AnchorPoint: "rtl-above" 294 399 basechar 0
AnchorPoint: "rtl-below" 264 -280 basechar 0
LayerCount: 2
Fore
SplineSet
413 89 m 1
 413 115 409 139 404 159 c 0
 396 187 383 205 368 216 c 0
 356 224 345 228 333 228 c 0
 324 228 319 228 310 225 c 0
 285 215 271 201 266 181 c 0
 259 154 267 130 287 112 c 0
 302 98 344 90 413 89 c 1
496 89 m 1
 496 89 632 89 624 89 c 1
 624 0 l 1
 485 0 l 1
 478 -52 453 -99 409 -142 c 0
 381 -170 350 -192 315 -207 c 0
 251 -236 163 -250 50 -250 c 1
 50 -162 l 1
 166 -162 246 -149 291 -123 c 0
 346 -91 384 -50 405 2 c 1
 363 3 336 5 324 6 c 0
 277 15 247 26 232 40 c 0
 198 70 177 107 174 151 c 0
 173 160 175 174 178 193 c 0
 186 245 220 284 280 309 c 0
 300 317 320 321 339 321 c 0
 363 320 386 312 409 296 c 0
 453 265 479 226 486 181 c 0
 491 154 495 123 496 89 c 1
EndSplineSet
EndChar

StartChar: uniFEEF
Encoding: 65263 65263 114
Width: 613
Flags: MW
AnchorPoint: "rtl-above" 350 545 basechar 0
AnchorPoint: "rtl-below" 288 -159 basechar 0
LayerCount: 2
Fore
SplineSet
567 10 m 0
 522 -57 459 -99 378 -114 c 0
 318 -123 279 -128 258 -128 c 0
 218 -128 189 -125 166 -119 c 0
 63 -84 12 -23 12 61 c 0
 12 100 26 154 55 192 c 1
 119 156 l 1
 106 123 96 94 96 61 c 0
 96 13 125 -20 184 -36 c 0
 209 -43 236 -46 264 -46 c 0
 303 -47 341 -41 378 -29 c 0
 415 -17 445 3 467 30 c 0
 487 55 498 72 497 82 c 0
 498 98 493 113 483 127 c 0
 471 144 442 163 397 184 c 0
 370 200 358 226 359 265 c 0
 359 314 374 347 405 367 c 0
 429 384 456 391 487 391 c 0
 531 391 562 380 580 357 c 0
 597 337 608 304 614 257 c 1
 528 257 l 1
 528 277 525 291 519 301 c 0
 510 312 499 316 486 315 c 0
 479 314 473 312 465 305 c 0
 453 295 446 280 446 260 c 0
 446 249 467 234 509 218 c 0
 535 208 557 187 573 154 c 0
 584 135 589 110 589 78 c 0
 589 55 582 32 567 10 c 0
EndSplineSet
EndChar

StartChar: uniFEF0
Encoding: 65264 65264 115
Width: 613
Flags: MW
AnchorPoint: "rtl-below" 202 -200 basechar 0
AnchorPoint: "rtl-above" 206 279 basechar 0
LayerCount: 2
Fore
SplineSet
384 27 m 0
 383 43 382 52 379 56 c 0
 371 69 363 80 356 87 c 0
 341 103 334 120 334 138 c 0
 335 163 342 182 355 196 c 0
 381 228 411 248 440 252 c 0
 448 254 458 254 470 254 c 0
 492 254 511 248 525 236 c 0
 536 226 546 211 553 190 c 0
 576 123 594 89 605 89 c 2
 604 89 610 89 624 89 c 1
 624 0 l 1
 607 0 l 2
 566 0 535 29 512 86 c 0
 490 141 474 168 465 168 c 0
 453 168 443 165 438 160 c 0
 431 154 427 146 427 134 c 0
 427 133 434 120 448 96 c 0
 465 66 474 44 474 26 c 0
 474 1 460 -26 432 -55 c 0
 396 -94 346 -117 283 -124 c 0
 237 -128 203 -130 182 -130 c 0
 142 -130 97 -124 48 -112 c 0
 -28 -93 -68 -53 -72 9 c 0
 -74 40 -68 87 -54 133 c 1
 21 114 l 1
 14 87 11 65 11 26 c 0
 11 -9 37 -31 85 -40 c 0
 108 -44 140 -46 181 -46 c 0
 228 -46 260 -43 277 -38 c 0
 324 -25 350 -16 355 -12 c 0
 374 5 384 18 384 27 c 0
EndSplineSet
EndChar

StartChar: uniFEFB
Encoding: 65275 65275 126
Width: 613
Flags: MW
AnchorPoint: "Ligature rtl-above" 110 751 baselig 1
AnchorPoint: "Ligature rtl-above" 460 820 baselig 0
AnchorPoint: "Ligature rtl-below" 449 46 baselig 1
AnchorPoint: "Ligature rtl-below" 494 40 baselig 0
LayerCount: 2
Fore
SplineSet
521 417 m 2
 522 318 499 232 451 158 c 0
 432 131 411 105 386 81 c 0
 316 20 257 -10 208 -10 c 0
 173 -10 143 -5 118 6 c 1
 118 94 l 1
 150 83 180 78 208 78 c 0
 245 78 289 104 337 159 c 1
 96 698 l 1
 169 731 l 2
 170 730 171 729 172 727 c 0
 176 719 169 716 174 705 c 2
 174 705 247 543 391 217 c 1
 400 232 409 249 416 266 c 0
 429 313 436 370 437 435 c 2
 437 778 l 1
 527 778 l 2
 528 777 528 775 528 773 c 0
 528 764 521 764 521 752 c 2
 521 417 l 2
EndSplineSet
LCarets2: 1 306
Ligature2: "Lam-Alef ligature-1" uniFEDF uniFE8E
EndChar

StartChar: uniFEFC
Encoding: 65276 65276 127
Width: 613
Flags: MW
AnchorPoint: "Ligature rtl-above" 423 820 baselig 0
AnchorPoint: "Ligature rtl-above" 73 751 baselig 1
AnchorPoint: "Ligature rtl-below" 233 -44 baselig 0
AnchorPoint: "Ligature rtl-below" 395 28 baselig 1
LayerCount: 2
Fore
SplineSet
411 168 m 1
 391 135 368 108 343 86 c 0
 273 22 212 -10 160 -10 c 0
 125 -10 95 -5 70 6 c 1
 70 94 l 1
 102 83 132 78 160 78 c 0
 197 78 240 104 288 159 c 1
 48 699 l 1
 121 731 l 2
 122 730 123 729 124 727 c 0
 128 719 121 716 126 705 c 2
 126 705 199 543 343 217 c 1
 352 232 361 248 368 265 c 0
 381 313 388 369 389 435 c 2
 389 778 l 1
 473 778 l 1
 473 300 l 2
 473 247 479 204 490 175 c 0
 513 118 539 89 568 89 c 2
 624 89 l 1
 624 0 l 1
 560 0 l 2
 499 0 451 44 417 132 c 0
 412 145 410 157 411 168 c 1
EndSplineSet
LCarets2: 1 306
Ligature2: "Lam-Alef ligature-1" uniFEE0 uniFE8E
EndChar

StartChar: uni066E
Encoding: 1646 1646 128
Width: 613
Flags: MW
AnchorPoint: "rtl-below" 314 -86 basechar 0
AnchorPoint: "rtl-above" 305 375 basechar 0
LayerCount: 2
Fore
SplineSet
499 265 m 1
 579 297 l 2
 580 296 581 294 582 292 c 0
 585 284 578 281 582 270 c 0
 592 247 596 213 596 168 c 0
 596 128 569 88 515 49 c 0
 463 11 391 -9 300 -9 c 0
 226 -9 164 1 113 20 c 0
 61 40 35 86 35 160 c 0
 35 180 45 223 61 265 c 1
 138 241 l 1
 125 194 120 175 120 160 c 0
 120 122 139 99 179 90 c 0
 214 81 253 76 297 76 c 0
 363 76 413 87 448 109 c 0
 489 134 511 166 511 202 c 0
 511 222 507 244 499 265 c 1
EndSplineSet
Substitution2: "Final forms-1" uni066E.fina
Substitution2: "Medial forms-1" uniFBE9
Substitution2: "Initial forms-1" uniFBE8
EndChar

StartChar: uni066E.fina
Encoding: 65536 -1 129
Width: 613
Flags: MW
AnchorPoint: "rtl-below" 298 -72 basechar 0
AnchorPoint: "rtl-above" 261 359 basechar 0
LayerCount: 2
Fore
SplineSet
266 -10 m 0
 206 -10 153 -1 108 19 c 0
 57 41 32 88 32 160 c 0
 32 179 41 221 58 264 c 1
 135 241 l 1
 121 192 116 172 116 158 c 0
 116 120 135 96 175 87 c 0
 210 77 249 74 294 74 c 0
 318 74 352 83 399 104 c 0
 428 117 451 132 466 151 c 0
 486 174 495 194 495 212 c 0
 495 232 490 251 479 270 c 1
 565 270 l 1
 571 245 574 217 574 188 c 0
 574 153 578 126 586 109 c 0
 593 96 600 89 608 89 c 2
 624 89 l 1
 624 0 l 1
 587 0 l 2
 571 0 555 7 538 23 c 0
 524 36 514 57 506 86 c 1
 474 57 443 35 412 19 c 0
 373 -1 324 -10 266 -10 c 0
EndSplineSet
EndChar

StartChar: uniFBE8
Encoding: 64488 64488 130
Width: 613
Flags: MW
AnchorPoint: "rtl-below" 286 -59 basechar 0
AnchorPoint: "rtl-above" 258 486 basechar 0
LayerCount: 2
Fore
SplineSet
298 43 m 0
 274 14 207 0 94 0 c 2
 -11 0 l 1
 -11 89 l 1
 67 89 l 2
 165 89 221 96 236 111 c 0
 252 127 260 153 260 189 c 2
 260 300 l 1
 350 300 l 2
 351 299 351 297 351 295 c 0
 351 286 344 286 344 274 c 2
 344 189 l 2
 344 128 329 80 298 43 c 0
EndSplineSet
EndChar

StartChar: uniFBE9
Encoding: 64489 64489 131
Width: 613
Flags: MW
AnchorPoint: "rtl-below" 302 -64 basechar 0
AnchorPoint: "rtl-above" 303 455 basechar 0
LayerCount: 2
Fore
SplineSet
301 44 m 1
 275 14 227 0 156 0 c 2
 -11 0 l 1
 -11 89 l 1
 132 89 l 2
 186 89 220 96 235 111 c 0
 251 127 259 153 259 189 c 2
 259 297 l 1
 343 297 l 1
 343 189 l 2
 343 154 351 128 368 111 c 0
 383 96 417 89 472 89 c 2
 623 89 l 1
 623 0 l 1
 448 0 l 2
 378 0 329 14 301 44 c 1
EndSplineSet
EndChar

StartChar: uni06A1
Encoding: 1697 1697 132
Width: 613
Flags: MW
AnchorPoint: "rtl-below" 289 -91 basechar 0
AnchorPoint: "rtl-above" 390 537 basechar 0
LayerCount: 2
Fore
SplineSet
462 216 m 0
 476 232 484 253 484 280 c 0
 484 300 472 318 449 337 c 0
 439 346 427 350 412 349 c 0
 395 349 379 342 366 328 c 0
 352 313 345 298 344 280 c 0
 343 252 352 232 372 219 c 0
 385 210 399 206 414 206 c 0
 438 206 454 209 462 216 c 0
527 36 m 0
 490 8 446 -11 394 -23 c 0
 334 -36 277 -43 222 -43 c 0
 166 -43 120 -36 84 -23 c 0
 5 6 -35 66 -37 157 c 0
 -38 203 -30 255 -15 286 c 1
 60 256 l 1
 51 225 47 202 47 157 c 0
 47 107 67 75 107 60 c 0
 136 49 174 42 222 42 c 0
 265 42 300 46 326 53 c 0
 394 71 434 86 450 94 c 0
 472 107 491 133 505 172 c 1
 483 144 449 130 405 130 c 0
 362 130 327 140 303 163 c 0
 271 192 256 227 256 270 c 0
 256 282 257 297 260 315 c 0
 267 365 296 402 346 426 c 0
 372 437 396 443 420 443 c 0
 451 443 476 436 496 418 c 0
 529 392 551 362 564 330 c 0
 572 313 575 281 575 235 c 0
 575 125 559 59 527 36 c 0
EndSplineSet
Substitution2: "Final forms-1" uni06A1.fina
Substitution2: "Medial forms-1" uni066F.medi
Substitution2: "Initial forms-1" uni066F.init
EndChar

StartChar: uni06A1.fina
Encoding: 65537 -1 133
Width: 613
Flags: MW
AnchorPoint: "rtl-below" 312 -124 basechar 0
AnchorPoint: "rtl-above" 392 465 basechar 0
LayerCount: 2
Fore
SplineSet
440 19 m 1
 418 8 388 -4 348 -16 c 0
 289 -35 238 -45 197 -46 c 0
 153 -46 113 -39 77 -27 c 0
 -23 8 -75 70 -75 157 c 0
 -75 203 -59 259 -23 290 c 1
 29 247 l 1
 21 230 10 204 10 157 c 0
 10 115 39 81 99 57 c 0
 123 48 157 43 200 43 c 0
 238 43 283 52 334 71 c 1
 324 80 314 91 306 104 c 0
 279 146 265 186 265 223 c 0
 265 232 266 242 266 250 c 0
 272 305 308 345 374 370 c 0
 391 377 407 381 421 381 c 0
 444 381 470 373 497 356 c 0
 545 326 572 284 577 229 c 0
 576 219 576 211 576 207 c 0
 576 162 564 123 537 89 c 1
 541 89 541 89 545 89 c 2
 545 89 628 89 624 89 c 1
 624 0 l 1
 548 0 l 2
 514 0 478 7 440 19 c 1
440 107 m 1
 476 128 493 157 493 193 c 0
 493 199 492 207 490 216 c 0
 484 242 473 261 455 275 c 0
 444 284 431 288 418 288 c 0
 410 288 402 286 395 282 c 0
 375 274 361 260 354 239 c 0
 352 232 352 226 352 221 c 0
 353 206 360 187 374 163 c 0
 390 137 412 119 440 107 c 1
EndSplineSet
EndChar

StartChar: uni066F
Encoding: 1647 1647 134
Width: 613
Flags: MW
AnchorPoint: "rtl-below" 272 -218 basechar 0
AnchorPoint: "rtl-above" 343 592 basechar 0
LayerCount: 2
Fore
SplineSet
448 267 m 0
 461 283 468 303 469 328 c 0
 469 349 457 369 433 387 c 0
 422 394 411 398 396 398 c 0
 379 398 362 391 348 375 c 0
 335 362 328 345 328 328 c 0
 328 300 338 281 358 267 c 0
 371 259 385 255 398 255 c 0
 424 255 440 259 448 267 c 0
219 -98 m 0
 291 -97 341 -81 374 -50 c 0
 444 21 480 112 480 223 c 1
 458 196 426 182 388 182 c 0
 344 182 310 192 286 215 c 0
 255 243 241 278 241 318 c 0
 241 332 242 348 245 366 c 0
 253 412 280 447 328 469 c 0
 353 481 378 486 402 486 c 0
 432 486 455 479 473 464 c 0
 508 434 533 398 546 357 c 0
 557 323 561 281 561 232 c 0
 561 147 553 81 538 35 c 0
 520 -21 483 -72 427 -114 c 0
 362 -163 292 -188 217 -188 c 0
 149 -188 93 -154 48 -86 c 0
 27 -52 16 -16 16 18 c 0
 16 76 33 160 65 236 c 1
 134 202 l 1
 109 139 97 100 97 46 c 0
 97 25 99 7 103 -4 c 0
 133 -67 171 -98 219 -98 c 0
EndSplineSet
Substitution2: "Final forms-1" uni066F.fina
Substitution2: "Medial forms-1" uni066F.medi
Substitution2: "Initial forms-1" uni066F.init
EndChar

StartChar: uni066F.fina
Encoding: 65538 -1 135
Width: 613
Flags: MW
AnchorPoint: "rtl-below" 232 -294 basechar 0
AnchorPoint: "rtl-above" 303 446 basechar 0
LayerCount: 2
Fore
SplineSet
452 5 m 1
 431 6 413 9 399 14 c 0
 361 26 333 38 316 49 c 0
 265 85 240 135 240 200 c 0
 240 218 240 231 239 236 c 0
 253 297 286 337 338 361 c 0
 348 366 366 368 393 368 c 0
 428 368 456 359 476 340 c 0
 509 308 534 267 551 217 c 0
 557 199 561 157 564 89 c 1
 576 89 576 89 578 89 c 2
 624 89 l 1
 624 0 l 1
 576 0 l 1
 552 0 l 1
 541 -26 522 -58 496 -95 c 0
 460 -144 419 -182 373 -207 c 0
 321 -234 270 -247 220 -246 c 0
 121 -245 55 -213 24 -150 c 0
 0 -101 -12 -57 -12 -18 c 0
 -12 39 2 99 37 129 c 1
 95 91 l 1
 83 64 74 37 74 -17 c 0
 74 -41 78 -64 86 -84 c 0
 106 -130 149 -152 217 -152 c 0
 252 -152 290 -142 330 -122 c 0
 385 -95 425 -53 452 5 c 1
476 99 m 1
 477 141 473 175 465 205 c 0
 458 231 447 252 432 263 c 0
 421 272 407 276 394 276 c 0
 383 276 374 274 367 270 c 0
 350 261 338 246 330 225 c 0
 326 214 324 205 324 198 c 0
 324 177 335 159 354 144 c 0
 381 122 414 109 448 103 c 0
 463 101 472 100 476 99 c 1
EndSplineSet
EndChar

StartChar: uni066F.init
Encoding: 65539 -1 136
Width: 613
Flags: MW
AnchorPoint: "rtl-below" 205 -72 basechar 0
AnchorPoint: "rtl-above" 215 555 basechar 0
LayerCount: 2
Fore
SplineSet
300 264 m 0
 315 280 322 302 322 328 c 0
 322 349 310 370 286 388 c 0
 274 396 262 400 247 400 c 0
 229 400 212 393 198 377 c 0
 183 363 176 346 176 328 c 0
 176 299 186 280 206 266 c 0
 220 256 234 252 249 252 c 0
 275 252 292 256 300 264 c 0
-12 89 m 1
 108 89 l 2
 128 89 166 92 222 100 c 0
 249 103 274 121 296 156 c 0
 307 172 314 189 320 207 c 1
 297 187 269 176 238 176 c 0
 196 175 163 187 138 210 c 0
 106 239 90 275 90 318 c 0
 90 335 91 351 94 366 c 0
 102 415 131 451 180 474 c 0
 206 486 230 492 253 492 c 0
 281 492 306 484 327 468 c 0
 361 442 385 412 400 376 c 0
 407 360 410 328 410 281 c 0
 410 214 398 158 370 110 c 0
 345 64 313 34 276 20 c 0
 240 7 197 0 148 0 c 2
 -12 0 l 1
 -12 89 l 1
EndSplineSet
EndChar

StartChar: uni066F.medi
Encoding: 65540 -1 137
Width: 613
Flags: MW
AnchorPoint: "rtl-below" 308 -66 basechar 0
AnchorPoint: "rtl-above" 317 483 basechar 0
LayerCount: 2
Fore
SplineSet
348 377 m 0
 411 349 447 308 454 255 c 0
 456 239 457 227 457 217 c 0
 457 192 453 172 446 156 c 0
 436 132 426 112 417 97 c 1
 430 92 461 89 512 89 c 2
 624 89 l 1
 624 0 l 1
 467 0 l 2
 422 0 368 9 306 28 c 1
 245 9 191 0 146 0 c 2
 -12 0 l 1
 -12 89 l 1
 101 89 l 2
 151 89 183 92 196 97 c 1
 188 111 178 131 166 156 c 0
 159 171 156 192 156 217 c 0
 156 228 157 240 158 255 c 0
 164 305 200 345 266 377 c 0
 273 382 287 384 306 384 c 0
 325 384 338 382 348 377 c 0
306 295 m 0
 302 295 297 293 291 290 c 0
 270 278 257 262 248 244 c 0
 246 238 244 230 244 221 c 0
 244 206 248 189 256 171 c 0
 265 147 282 131 306 123 c 1
 328 130 346 146 358 171 c 0
 366 189 370 206 370 221 c 0
 370 228 368 236 365 244 c 0
 356 262 343 278 323 290 c 0
 316 293 311 295 306 295 c 0
EndSplineSet
EndChar

StartChar: uniFB9E
Encoding: 64414 64414 138
Width: 613
Flags: MW
AnchorPoint: "rtl-above" 253 354 basechar 0
AnchorPoint: "rtl-below" 291 -212 basechar 0
LayerCount: 2
Fore
SplineSet
577 128 m 0
 577 66 560 9 526 -47 c 0
 501 -87 466 -115 420 -135 c 0
 371 -156 328 -166 290 -166 c 0
 233 -166 183 -155 142 -134 c 0
 66 -94 26 -28 28 63 c 0
 29 121 39 186 61 231 c 1
 134 203 l 1
 118 148 110 105 110 60 c 0
 110 -1 138 -43 193 -66 c 0
 211 -73 243 -76 290 -76 c 0
 317 -76 341 -73 363 -66 c 0
 416 -49 454 -12 475 46 c 0
 487 79 493 112 493 144 c 0
 493 224 479 290 459 336 c 1
 534 371 l 2
 535 371 536 368 537 366 c 0
 541 358 534 355 539 344 c 0
 565 291 577 219 577 128 c 0
EndSplineSet
EndChar

StartChar: uniFB9F
Encoding: 64415 64415 139
Width: 613
Flags: MW
AnchorPoint: "rtl-above" 194 262 basechar 0
AnchorPoint: "rtl-below" 221 -286 basechar 0
LayerCount: 2
Fore
SplineSet
479 -131 m 0
 454 -171 419 -199 373 -219 c 0
 324 -240 279 -250 241 -250 c 0
 184 -250 136 -239 95 -218 c 0
 17 -178 -21 -113 -21 -22 c 0
 -21 35 -11 98 11 144 c 1
 87 120 l 1
 71 64 63 20 63 -25 c 0
 63 -87 90 -129 145 -151 c 0
 163 -158 195 -162 241 -162 c 0
 267 -162 292 -159 314 -152 c 0
 368 -135 406 -96 427 -38 c 0
 438 -7 443 28 443 69 c 0
 443 124 427 177 398 244 c 1
 469 280 l 1
 475 244 490 222 501 195 c 0
 513 166 524 142 534 123 c 0
 547 101 568 89 599 89 c 2
 625 89 l 1
 625 0 l 1
 578 0 l 2
 548 0 530 8 526 26 c 1
 523 -31 508 -83 479 -131 c 0
EndSplineSet
EndChar

StartChar: uniFEB1.alt
Encoding: 65541 -1 140
Width: 613
Flags: MW
AnchorPoint: "rtl-above" 303 507 basechar 0
AnchorPoint: "rtl-below" 308 -214 basechar 0
LayerCount: 2
Fore
SplineSet
190 32 m 1
 187 -28 181 -72 171 -101 c 0
 157 -141 141 -174 121 -200 c 0
 97 -231 35 -246 0 -246 c 1
 0 -173 l 1
 16 -173 70 -162 86 -136 c 0
 97 -118 107 -89 117 -47 c 0
 125 -11 130 35 129 90 c 0
 129 121 126 152 121 183 c 2
 100 300 l 1
 174 300 l 1
 183 222 l 2
 188 171 195 141 202 132 c 0
 219 104 236 90 249 89 c 0
 264 88 281 108 297 152 c 0
 310 189 317 238 317 300 c 1
 394 300 l 1
 393 247 398 198 411 151 c 0
 423 109 435 87 449 87 c 0
 487 87 506 135 506 228 c 2
 506 375 l 1
 588 375 l 2
 589 374 589 372 589 370 c 0
 589 361 582 361 582 349 c 2
 582 204 l 2
 582 155 572 103 551 50 c 0
 540 22 521 0 490 -12 c 0
 486 -14 469 -14 442 -14 c 0
 420 -14 407 -11 400 -4 c 0
 379 19 364 53 354 97 c 1
 342 58 324 29 300 11 c 0
 282 -1 262 -8 240 -9 c 0
 224 -10 207 3 190 32 c 1
EndSplineSet
EndChar

StartChar: uniFEB2.alt
Encoding: 65542 -1 141
Width: 613
Flags: MW
AnchorPoint: "rtl-above" 229 476 basechar 0
AnchorPoint: "rtl-below" 165 -246 basechar 0
LayerCount: 2
Fore
SplineSet
404 -14 m 0
 384 -14 369 -11 361 -4 c 0
 340 19 325 53 315 97 c 1
 303 58 285 29 261 11 c 0
 243 -1 224 -8 201 -9 c 0
 185 -10 169 3 152 32 c 1
 149 -28 142 -72 132 -101 c 0
 120 -141 103 -174 82 -200 c 0
 58 -231 35 -246 0 -246 c 1
 0 -173 l 1
 16 -173 30 -161 47 -136 c 0
 59 -118 70 -89 79 -47 c 0
 87 -11 91 35 91 90 c 0
 91 121 88 152 82 183 c 1
 81 183 76 210 61 300 c 1
 61 300 148 300 136 300 c 1
 145 222 l 2
 150 171 157 141 164 132 c 0
 181 104 197 90 210 89 c 0
 226 88 242 108 258 152 c 0
 271 189 278 238 278 300 c 1
 355 300 l 1
 354 247 359 198 372 151 c 0
 384 109 397 87 411 87 c 0
 449 87 467 135 467 228 c 2
 467 375 l 1
 543 375 l 1
 543 375 543 179 543 201 c 1
 543 155 550 126 564 113 c 0
 579 97 598 89 620 89 c 2
 624 89 l 1
 624 0 l 1
 593 0 l 2
 558 0 529 17 508 50 c 1
 497 16 480 -5 456 -12 c 0
 447 -14 430 -14 404 -14 c 0
EndSplineSet
EndChar

StartChar: uniFEB9.alt
Encoding: 65545 -1 144
Width: 613
Flags: MW
AnchorPoint: "rtl-above" 153 477 basechar 0
AnchorPoint: "rtl-below" 418 -132 basechar 0
LayerCount: 2
Fore
SplineSet
223 140 m 1
 248 185 270 216 285 236 c 0
 332 297 382 328 433 328 c 0
 488 328 532 315 562 288 c 0
 591 264 606 231 606 190 c 0
 606 127 574 77 512 40 c 0
 466 14 425 0 387 0 c 2
 278 0 l 2
 266 0 251 5 233 15 c 0
 218 24 211 31 211 36 c 1
 211 -28 203 -81 186 -123 c 0
 170 -167 153 -193 139 -203 c 0
 105 -232 21 -246 0 -246 c 1
 0 -154 l 1
 24 -153 93 -141 105 -122 c 0
 129 -83 140 -40 139 7 c 0
 137 40 135 65 132 82 c 0
 120 159 113 208 108 231 c 1
 206 225 l 1
 206 219 191 206 197 185 c 1
 200 172 209 157 223 140 c 1
288 89 m 1
 352 89 l 2
 401 89 439 98 466 114 c 0
 503 138 522 162 522 187 c 0
 522 203 515 217 501 230 c 0
 488 241 471 247 449 247 c 0
 425 247 395 228 359 190 c 0
 333 164 309 130 288 89 c 1
EndSplineSet
EndChar

StartChar: uniFEBA.alt
Encoding: 65546 -1 145
Width: 613
Flags: MW
AnchorPoint: "rtl-above" 102 410 basechar 0
AnchorPoint: "rtl-below" 130 -276 basechar 0
LayerCount: 2
Fore
SplineSet
566 190 m 0
 566 172 561 151 550 124 c 1
 555 122 560 118 565 113 c 0
 581 97 594 89 604 89 c 2
 623 89 l 1
 623 0 l 1
 594 0 l 2
 577 0 550 17 515 50 c 2
 501 63 l 1
 440 22 391 0 348 0 c 2
 240 0 l 2
 227 0 211 5 194 15 c 0
 179 24 172 31 172 36 c 1
 172 -28 164 -81 147 -123 c 0
 130 -167 114 -193 100 -203 c 0
 64 -232 21 -246 0 -246 c 1
 0 -154 l 1
 25 -153 54 -141 66 -122 c 0
 87 -86 98 -52 98 -6 c 0
 98 32 97 61 94 82 c 0
 83 154 74 202 69 225 c 1
 150 225 l 1
 150 220 152 207 156 187 c 0
 160 174 171 158 185 140 c 1
 210 185 231 216 246 236 c 0
 296 297 345 328 395 328 c 0
 450 328 494 315 524 288 c 0
 553 262 566 230 566 190 c 0
248 89 m 1
 313 89 l 2
 362 89 401 98 427 114 c 0
 464 138 482 162 482 187 c 0
 482 203 475 217 461 230 c 0
 448 241 432 247 410 247 c 0
 387 247 357 228 320 190 c 0
 294 164 270 130 248 89 c 1
EndSplineSet
EndChar

StartChar: uniFE73
Encoding: 65139 65139 148
Width: 613
Flags: MW
LayerCount: 2
Fore
SplineSet
613 -246 m 1
 583 -246 551 -229 518 -196 c 0
 478 -156 461 -102 468 -32 c 0
 476 46 492 121 518 163 c 1
 581 133 l 1
 557 73 541 14 543 -32 c 0
 546 -92 553 -129 564 -143 c 0
 580 -164 596 -174 613 -173 c 1
 613 -246 l 1
EndSplineSet
EndChar

StartChar: smallhamza
Encoding: 65549 -1 149
Width: 613
GlyphClass: 1
Flags: MW
LayerCount: 2
Fore
SplineSet
220 716 m 25
 260 725 l 17
 244 732 234 741 230 753 c 16
 226 764 223 778 223 793 c 0
 224 824 235 847 252 861 c 0
 272 875 293 883 325 883 c 0
 344 882 363 877 382 866 c 9
 382 818 l 17
 365 829 346 834 325 835 c 0
 301 835 286 832 281 826 c 24
 271 814 265 805 265 797 c 0
 265 771 282 753 314 745 c 17
 327 742 346 743 392 753 c 9
 392 753 392 696 392 706 c 25
 220 668 l 25
 220 716 l 25
EndSplineSet
EndChar

StartChar: madda
Encoding: 65550 -1 150
Width: 613
GlyphClass: 1
Flags: MW
AnchorPoint: "rtl-above" 299 571 mark 0
AnchorPoint: "Ligature rtl-above" 299 571 mark 0
LayerCount: 2
Fore
SplineSet
128 663 m 25
 128 662 145 678 206 725 c 25
 243 696 271 678 290 672 c 0
 304 668 320 666 338 666 c 0
 357 666 374 669 388 674 c 0
 423 687 455 707 484 732 c 25
 484 676 l 17
 452 654 423 638 395 630 c 0
 373 622 353 618 335 618 c 0
 323 618 304 621 280 627 c 0
 256 633 233 647 209 670 c 25
 128 606 l 25
 128 663 l 25
EndSplineSet
EndChar

StartChar: arabic_dot
Encoding: 65553 -1 153
Width: 613
GlyphClass: 1
Flags: MW
LayerCount: 2
Fore
SplineSet
-7 34 m 0
 -7 56 10 74 32 74 c 0
 54 74 72 56 72 34 c 0
 72 12 54 -5 32 -5 c 0
 10 -5 -7 12 -7 34 c 0
EndSplineSet
EndChar

StartChar: tatweelarabic
Encoding: 1600 1600 195
Width: 613
Flags: MW
AnchorPoint: "rtl-above" 297 569 basechar 0
AnchorPoint: "rtl-below" 303 -68 basechar 0
LayerCount: 2
Fore
SplineSet
-11 0 m 1
 -11 89 l 1
 623 89 l 1
 623 0 l 1
 -11 0 l 1
EndSplineSet
EndChar

StartChar: uniFE70
Encoding: 65136 65136 196
Width: 613
Flags: MW
LayerCount: 2
Fore
SplineSet
162 728 m 25
 162 779 l 17
 450 841 l 9
 450 790 l 25
 162 728 l 25
162 609 m 25
 162 660 l 17
 450 722 l 9
 450 671 l 25
 162 609 l 25
EndSplineSet
EndChar

StartChar: uniFE72
Encoding: 65138 65138 198
Width: 613
Flags: MW
LayerCount: 2
Fore
SplineSet
342 731 m 1
 332 734 323 736 315 740 c 0
 305 745 295 751 288 757 c 0
 270 772 261 792 261 814 c 0
 261 843 273 866 296 884 c 0
 304 890 318 892 339 892 c 0
 362 892 380 886 393 873 c 0
 411 855 420 833 420 808 c 0
 419 795 417 781 413 768 c 1
 424 768 423 769 430 769 c 0
 437 769 444 769 450 768 c 1
 450 716 l 1
 432 716 421 716 416 717 c 0
 417 718 409 719 390 721 c 1
 382 703 365 680 338 652 c 0
 310 624 282 611 253 611 c 0
 235 611 218 617 205 631 c 0
 193 644 183 662 175 685 c 0
 170 697 167 722 167 759 c 1
 207 759 l 1
 207 728 209 709 212 701 c 0
 224 676 237 663 252 663 c 0
 271 663 291 673 312 693 c 0
 324 705 335 718 342 731 c 1
360 777 m 1
 361 780 362 782 363 784 c 0
 367 791 369 799 369 808 c 0
 369 820 366 828 360 833 c 0
 354 838 348 841 341 841 c 0
 333 841 326 839 323 836 c 0
 317 831 314 824 314 814 c 0
 314 802 321 792 336 786 c 0
 343 783 351 780 360 777 c 1
EndSplineSet
EndChar

StartChar: uniFE74
Encoding: 65140 65140 199
Width: 613
Flags: MW
LayerCount: 2
Fore
SplineSet
162 -236 m 25
 162 -186 l 17
 450 -124 l 9
 450 -175 l 25
 162 -236 l 25
162 -118 m 25
 162 -67 l 17
 450 -5 l 9
 450 -56 l 25
 162 -118 l 25
EndSplineSet
EndChar

StartChar: uniFE76
Encoding: 65142 65142 200
Width: 613
Flags: MW
LayerCount: 2
Fore
SplineSet
162 609 m 25
 162 660 l 17
 450 722 l 9
 450 671 l 25
 162 609 l 25
EndSplineSet
EndChar

StartChar: uniFE78
Encoding: 65144 65144 202
Width: 613
Flags: MW
LayerCount: 2
Fore
SplineSet
330 734 m 1
 328 734 323 736 316 739 c 0
 306 744 297 750 290 756 c 0
 271 772 261 791 261 814 c 0
 261 843 273 866 296 884 c 0
 304 890 318 892 339 892 c 0
 362 892 380 886 393 873 c 0
 411 855 420 833 420 808 c 0
 421 797 419 783 413 768 c 1
 422 768 421 769 430 769 c 0
 437 769 444 769 450 768 c 1
 450 716 l 1
 438 716 427 716 419 717 c 0
 408 718 397 719 388 720 c 1
 373 699 355 683 332 668 c 0
 263 626 206 605 162 606 c 1
 162 658 l 1
 214 657 266 677 315 717 c 0
 320 723 325 728 330 734 c 1
360 777 m 1
 361 780 363 782 364 784 c 0
 368 791 369 800 369 808 c 0
 369 819 365 827 359 833 c 0
 353 839 348 841 341 841 c 0
 333 841 326 839 323 836 c 0
 317 831 314 824 314 814 c 0
 314 801 322 792 337 786 c 0
 344 783 351 780 360 777 c 1
EndSplineSet
EndChar

StartChar: uniFE7A
Encoding: 65146 65146 204
Width: 613
Flags: MW
LayerCount: 2
Fore
SplineSet
162 -135 m 25
 162 -84 l 17
 450 -22 l 9
 450 -73 l 25
 162 -135 l 25
EndSplineSet
EndChar

StartChar: uniFE7C
Encoding: 65148 65148 206
Width: 613
Flags: MW
LayerCount: 2
Fore
SplineSet
314 709 m 1
 309 682 301 663 290 649 c 0
 272 627 250 615 227 615 c 0
 202 614 184 624 171 645 c 0
 160 662 154 689 154 726 c 0
 154 762 157 796 162 829 c 25
 162 829 213 829 206 829 c 25
 202 787 200 757 201 738 c 0
 203 709 208 689 214 678 c 0
 220 669 232 668 248 675 c 0
 269 684 281 717 282 774 c 24
 283 802 284 831 284 860 c 9
 284 860 335 860 328 860 c 17
 328 848 328 833 329 814 c 0
 334 748 349 715 376 716 c 0
 400 716 412 745 411 804 c 0
 410 842 408 871 404 890 c 9
 452 890 l 25
 457 866 459 835 458 796 c 0
 457 752 452 721 444 702 c 0
 431 673 411 657 384 653 c 0
 360 650 343 654 334 665 c 0
 325 676 318 690 314 709 c 1
EndSplineSet
EndChar

StartChar: uniFE7E
Encoding: 65150 65150 208
Width: 613
Flags: MW
LayerCount: 2
Fore
SplineSet
384 762 m 0
 384 784 377 803 362 818 c 0
 347 833 328 840 306 840 c 0
 284 840 265 833 250 818 c 0
 235 803 228 784 228 762 c 0
 228 740 235 721 250 706 c 0
 265 691 284 684 306 684 c 0
 328 684 347 691 362 706 c 0
 377 721 384 740 384 762 c 0
441 762 m 0
 441 724 428 691 402 665 c 0
 376 639 344 626 306 626 c 0
 269 626 236 639 210 665 c 0
 184 691 171 724 171 762 c 0
 171 800 184 832 210 858 c 0
 236 884 269 897 306 897 c 0
 344 897 376 884 402 858 c 0
 428 832 441 800 441 762 c 0
EndSplineSet
EndChar

StartChar: zeroarabic
Encoding: 1632 1632 231
Width: 613
Flags: MW
LayerCount: 2
Fore
SplineSet
255 345 m 1
 357 345 l 1
 357 230 l 1
 255 230 l 1
 255 345 l 1
EndSplineSet
EndChar

StartChar: onearabic
Encoding: 1633 1633 232
Width: 613
Flags: MW
LayerCount: 2
Fore
SplineSet
409 0 m 9
 327 0 l 17
 327 143 321 249 308 318 c 0
 292 409 257 517 204 642 c 9
 294 642 l 17
 335 543 368 435 393 318 c 0
 404 269 409 163 409 0 c 9
EndSplineSet
EndChar

StartChar: twoarabic
Encoding: 1634 1634 233
Width: 613
Flags: MW
LayerCount: 2
Fore
SplineSet
239 429 m 1
 248 392 257 355 266 318 c 0
 277 273 282 167 282 0 c 9
 200 0 l 17
 200 137 194 243 181 318 c 0
 166 410 131 518 77 642 c 25
 170 642 l 17
 193 590 204 563 205 562 c 0
 233 510 279 485 341 485 c 0
 382 485 412 510 430 560 c 24
 441 588 447 615 450 642 c 9
 532 642 l 17
 529 602 521 565 507 528 c 24
 475 442 421 398 342 398 c 0
 305 398 270 408 239 429 c 1
EndSplineSet
EndChar

StartChar: threearabic
Encoding: 1635 1635 234
Width: 613
Flags: MW
LayerCount: 2
Fore
SplineSet
240 405 m 1
 249 373 255 346 260 322 c 0
 269 279 274 171 274 0 c 9
 191 0 l 17
 191 149 186 257 174 322 c 0
 159 410 124 516 70 642 c 25
 163 642 l 17
 178 606 192 567 206 524 c 24
 213 504 225 494 241 496 c 0
 266 500 279 512 282 534 c 24
 284 551 285 587 285 642 c 9
 371 642 l 17
 371 567 373 526 378 518 c 24
 385 506 396 501 412 500 c 0
 432 499 444 505 449 520 c 24
 454 534 456 575 456 642 c 9
 541 642 l 17
 541 543 534 484 520 463 c 24
 497 427 460 409 409 409 c 0
 368 409 342 419 332 439 c 1
 314 422 296 412 280 409 c 0
 264 405 251 404 240 405 c 1
EndSplineSet
EndChar

StartChar: fourarabic
Encoding: 1636 1636 235
Width: 613
Flags: MW
LayerCount: 2
Fore
SplineSet
430 649 m 17
 430 569 l 1
 389 563 351 551 315 533 c 0
 270 510 247 488 247 467 c 0
 247 455 263 440 294 421 c 0
 322 404 348 395 374 394 c 9
 374 316 l 1
 347 318 310 305 262 280 c 24
 223 259 203 230 203 189 c 0
 203 162 212 137 229 116 c 24
 249 91 271 78 297 78 c 0
 329 78 360 82 388 89 c 0
 431 100 467 113 496 128 c 9
 496 34 l 1
 472 22 439 11 398 2 c 0
 365 -6 331 -10 297 -10 c 0
 250 -10 208 11 171 52 c 24
 138 89 121 135 121 189 c 0
 121 235 140 280 177 323 c 0
 198 347 223 362 253 369 c 1
 227 381 207 395 193 410 c 0
 174 429 165 448 165 467 c 0
 165 516 202 562 277 605 c 0
 312 625 363 640 430 649 c 17
EndSplineSet
EndChar

StartChar: fivearabic
Encoding: 1637 1637 236
Width: 613
Flags: MW
LayerCount: 2
Fore
SplineSet
307 561 m 24
 285 561 259 526 230 454 c 24
 203 390 190 330 189 275 c 0
 187 208 199 154 223 114 c 24
 235 93 263 83 306 83 c 0
 349 83 377 93 389 114 c 24
 414 154 426 208 424 275 c 0
 422 330 409 390 383 454 c 24
 354 526 329 561 307 561 c 24
306 652 m 24
 366 652 418 594 462 478 c 0
 492 399 506 331 506 275 c 0
 506 172 493 101 466 62 c 24
 433 15 381 -8 307 -8 c 24
 233 -8 179 15 146 62 c 24
 120 100 106 171 106 275 c 0
 106 332 122 400 152 478 c 0
 197 594 248 652 306 652 c 24
EndSplineSet
EndChar

StartChar: sixarabic
Encoding: 1638 1638 237
Width: 613
Flags: MW
LayerCount: 2
Fore
SplineSet
449 642 m 17
 449 548 455 442 467 324 c 0
 476 235 497 128 531 0 c 9
 531 0 531 0 440 0 c 17
 412 105 393 213 382 324 c 0
 373 420 367 494 366 546 c 9
 332 536 292 532 248 532 c 0
 193 532 138 540 82 557 c 25
 82 557 82 556 82 642 c 25
 143 625 198 618 248 618 c 0
 314 618 381 625 449 642 c 17
EndSplineSet
EndChar

StartChar: sevenarabic
Encoding: 1639 1639 238
Width: 613
Flags: MW
LayerCount: 2
Fore
SplineSet
264 0 m 17
 259 80 240 171 207 276 c 0
 151 452 103 574 64 642 c 25
 154 642 l 17
 208 535 250 429 281 320 c 0
 298 261 306 231 306 230 c 1
 306 230 314 260 331 320 c 0
 362 429 404 535 458 642 c 9
 548 642 l 17
 494 546 446 425 406 276 c 0
 376 169 357 77 348 0 c 9
 264 0 l 17
EndSplineSet
EndChar

StartChar: eightarabic
Encoding: 1640 1640 239
Width: 613
Flags: MW
LayerCount: 2
Fore
SplineSet
264 642 m 9
 348 642 l 17
 358 561 378 469 406 366 c 0
 447 216 494 95 548 0 c 17
 458 0 l 1
 404 107 362 214 331 323 c 0
 314 382 306 412 306 413 c 1
 306 413 298 383 281 323 c 0
 250 214 208 107 154 0 c 9
 64 0 l 17
 104 69 151 190 207 366 c 0
 241 475 260 567 264 642 c 9
EndSplineSet
EndChar

StartChar: ninearabic
Encoding: 1641 1641 240
Width: 613
Flags: MW
LayerCount: 2
Fore
SplineSet
383 294 m 1
 312 295 266 299 247 304 c 0
 195 318 158 335 135 356 c 24
 100 389 83 425 82 465 c 0
 80 511 95 550 127 583 c 24
 169 626 214 648 262 648 c 0
 309 647 347 634 378 608 c 0
 425 565 451 516 454 460 c 0
 456 412 460 363 467 313 c 0
 478 213 499 108 528 0 c 9
 439 0 l 17
 407 141 388 239 383 294 c 1
376 381 m 1
 376 391 375 404 372 424 c 0
 367 460 361 489 350 511 c 0
 331 544 303 561 265 562 c 0
 238 563 214 553 193 534 c 24
 172 515 163 493 164 468 c 24
 164 450 174 431 195 412 c 24
 206 401 225 394 252 390 c 16
 280 386 321 383 376 381 c 1
EndSplineSet
EndChar

StartChar: uniFB8E
Encoding: 64398 64398 251
Width: 613
Flags: MW
AnchorPoint: "rtl-above" 138 700 basechar 0
AnchorPoint: "rtl-below" 280 -73 basechar 0
LayerCount: 2
Fore
SplineSet
273 42 m 0
 329 42 376 51 414 70 c 0
 451 88 479 107 498 127 c 0
 515 145 524 167 524 198 c 0
 524 215 507 242 473 279 c 2
 380 380 l 2
 360 401 350 423 350 447 c 0
 350 476 352 495 357 504 c 0
 372 531 395 555 424 577 c 2
 424 577 463 606 637 736 c 1
 689 670 l 2
 689 669 687 668 685 667 c 0
 678 661 673 667 664 660 c 2
 478 516 l 2
 453 497 441 480 442 464 c 0
 442 442 447 425 458 414 c 2
 533 333 l 2
 581 281 606 237 606 201 c 0
 606 152 589 107 554 68 c 0
 527 37 485 8 427 -19 c 0
 394 -34 345 -41 278 -41 c 0
 241 -41 204 -36 168 -25 c 0
 58 8 5 67 3 154 c 0
 2 199 14 254 52 286 c 1
 108 247 l 1
 97 223 87 199 87 154 c 0
 87 114 123 81 195 57 c 0
 224 48 249 42 273 42 c 0
EndSplineSet
EndChar

StartChar: uniFB8F
Encoding: 64399 64399 252
Width: 613
Flags: MW
AnchorPoint: "rtl-above" 228 648 basechar 0
AnchorPoint: "rtl-below" 225 -72 basechar 0
LayerCount: 2
Fore
SplineSet
512 99 m 1
 503 81 490 66 473 53 c 0
 444 27 408 3 362 -19 c 0
 329 -34 278 -41 212 -41 c 0
 175 -41 138 -36 102 -25 c 0
 -7 8 -62 67 -62 154 c 0
 -62 199 -50 256 -12 288 c 1
 42 248 l 1
 31 227 20 199 20 154 c 0
 20 114 56 81 128 57 c 0
 157 48 184 42 208 42 c 0
 264 42 312 51 350 70 c 0
 387 88 414 107 432 127 c 0
 449 143 458 157 458 168 c 0
 458 184 451 202 439 223 c 2
 341 380 l 2
 319 415 309 436 309 446 c 0
 309 475 312 494 317 503 c 0
 331 529 355 554 385 577 c 2
 596 735 l 1
 649 668 l 2
 649 667 647 666 645 665 c 0
 638 659 633 665 624 658 c 2
 438 514 l 2
 414 495 402 479 402 464 c 0
 402 434 405 416 410 409 c 2
 597 121 l 2
 610 100 624 89 637 89 c 2
 653 89 l 1
 653 0 l 1
 635 0 l 2
 619 0 605 3 595 9 c 0
 573 20 559 31 552 42 c 2
 512 99 l 1
EndSplineSet
EndChar

StartChar: arabic_gaf_bar
Encoding: 65562 -1 270
Width: 613
Flags: MW
LayerCount: 2
Fore
SplineSet
346 828 m 1
 -2 565 l 1
 -41 617 l 9
 307 880 l 25
 346 828 l 1
EndSplineSet
EndChar

StartChar: arabic_gaf_bar_a
Encoding: 65563 -1 271
Width: 613
Flags: MW
LayerCount: 2
Fore
SplineSet
460 833 m 1
 -2 631 l 1
 -32 701 l 17
 430 902 l 9
 460 833 l 1
EndSplineSet
EndChar

StartChar: fourpersian
Encoding: 1780 1780 276
Width: 613
Flags: W
LayerCount: 2
Fore
SplineSet
274 519 m 1
 273 524 272 530 272 536 c 0
 272 575 286 604 313 622 c 0
 344 642 377 652 411 652 c 0
 436 652 465 647 495 639 c 9
 495 639 495 639 495 566 c 17
 465 579 437 586 412 585 c 0
 395 585 382 578 373 567 c 0
 362 555 357 546 357 539 c 0
 357 521 361 510 369 503 c 16
 385 490 400 483 414 484 c 0
 437 485 473 488 522 493 c 9
 522 493 522 499 522 407 c 17
 457 398 416 394 399 394 c 0
 355 394 307 407 258 434 c 1
 267 397 276 360 283 322 c 0
 292 286 297 179 297 0 c 9
 297 0 317 0 214 0 c 17
 214 149 209 257 198 322 c 0
 183 409 149 515 95 642 c 25
 95 642 75 642 189 642 c 17
 213 586 223 561 222 568 c 0
 230 548 250 533 274 519 c 1
EndSplineSet
Substitution2: "Urdu Arabic-Indic digits-1" fourpersian.urdu
EndChar

StartChar: fivepersian
Encoding: 1781 1781 277
Width: 613
Flags: W
LayerCount: 2
Fore
SplineSet
350 171 m 17
 364 117 380 90 398 90 c 0
 409 90 417 103 424 128 c 8
 433 164 438 197 438 226 c 0
 438 296 423 367 394 438 c 24
 364 513 335 550 306 550 c 24
 277 550 247 513 217 438 c 24
 188 368 174 297 174 226 c 0
 174 205 179 172 188 128 c 16
 193 103 202 90 214 90 c 0
 232 90 248 117 262 171 c 9
 262 171 263 171 350 171 c 17
306 73 m 1
 295 20 264 -6 214 -5 c 0
 164 -4 130 24 115 76 c 8
 99 136 91 185 91 222 c 0
 91 324 107 406 139 467 c 0
 200 591 256 652 306 652 c 24
 352 652 408 591 473 467 c 0
 504 408 520 327 521 221 c 0
 521 178 513 130 497 75 c 16
 481 23 448 -4 398 -5 c 0
 348 -6 317 20 306 73 c 1
EndSplineSet
EndChar

StartChar: sixpersian
Encoding: 1782 1782 278
Width: 613
Flags: W
LayerCount: 2
Fore
SplineSet
134 0 m 17
 158 83 187 154 223 212 c 0
 248 250 277 284 308 310 c 17
 280 310 259 315 244 327 c 0
 199 363 177 406 177 457 c 0
 177 517 192 562 224 593 c 0
 261 629 301 648 344 649 c 0
 384 650 419 644 448 633 c 25
 448 633 448 650 448 546 c 17
 419 564 387 574 347 574 c 0
 327 574 310 566 294 550 c 0
 271 528 259 498 259 463 c 0
 258 438 267 415 286 397 c 0
 301 383 325 376 360 376 c 0
 406 376 444 383 478 397 c 25
 478 397 478 416 478 312 c 17
 404 288 349 252 313 204 c 0
 268 144 236 76 216 0 c 9
 216 0 238 0 134 0 c 17
EndSplineSet
Substitution2: "Urdu Arabic-Indic digits-1" sixpersian.urdu
EndChar

StartChar: uniFBA7
Encoding: 64423 64423 296
Width: 613
Flags: W
AnchorPoint: "rtl-above" 290 427 basechar 0
AnchorPoint: "rtl-below" 318 -65 basechar 0
LayerCount: 2
Fore
SplineSet
60 -117 m 1
 65 85 105 166 160 222 c 0
 232 296 261 315 359 323 c 1
 358 336 357 350 356 364 c 1
 441 364 l 1
 441 310 447 254 459 195 c 0
 466 163 478 134 497 107 c 0
 506 95 530 89 568 89 c 2
 624 89 l 1
 624 0 l 1
 545 0 l 2
 516 0 489 8 463 26 c 0
 434 46 394 102 378 180 c 0
 374 197 370 222 366 256 c 1
 286 244 265 221 205 164 c 0
 170 131 141 0 135 -127 c 1
 60 -117 l 1
EndSplineSet
EndChar

StartChar: uniFBA9
Encoding: 64425 64425 298
Width: 613
Flags: W
AnchorPoint: "rtl-below" 271 -279 basechar 0
AnchorPoint: "rtl-above" 251 385 basechar 0
LayerCount: 2
Fore
SplineSet
203 66 m 1
 167 32 122 0 65 0 c 2
 -12 0 l 1
 -12 89 l 1
 65 89 l 2
 156 89 231 291 401 336 c 1
 423 250 l 1
 335 227 287 93 278 -48 c 1
 329 37 405 89 536 89 c 2
 624 89 l 1
 624 0 l 1
 536 0 l 2
 379 0 347 -84 287 -247 c 1
 201 -241 l 1
 192 -194 187 -145 187 -93 c 0
 187 -40 192 15 203 66 c 1
EndSplineSet
EndChar

StartChar: uniFBAA
Encoding: 64426 64426 299
Width: 613
Flags: W
AnchorPoint: "rtl-above" 308 553 basechar 0
AnchorPoint: "rtl-below" 309 -82 basechar 0
LayerCount: 2
Fore
SplineSet
434 258 m 1
 443 217 439 178 422 142 c 0
 414 125 402 111 374 74 c 1
 392 56 410 48 426 48 c 0
 470 48 495 59 500 82 c 0
 503 93 503 103 502 114 c 0
 501 136 496 159 485 184 c 0
 475 208 458 233 434 258 c 1
308 130 m 1
 321 140 334 156 346 180 c 0
 359 205 366 227 366 246 c 0
 366 262 363 277 358 289 c 0
 350 307 336 316 315 316 c 0
 292 316 276 308 268 293 c 0
 261 278 257 264 257 252 c 0
 256 242 257 231 260 219 c 0
 267 176 283 147 308 130 c 1
166 0 m 0
 121 0 87 6 64 18 c 0
 25 39 5 71 5 113 c 0
 5 140 9 175 19 193 c 1
 96 167 l 1
 93 152 91 142 91 126 c 0
 91 110 96 101 106 98 c 0
 122 92 136 89 149 89 c 0
 169 89 193 91 219 96 c 1
 204 132 193 162 188 184 c 0
 181 211 178 235 178 256 c 0
 178 285 186 313 202 340 c 0
 219 371 240 384 266 379 c 1
 251 393 226 405 179 412 c 1
 200 500 l 2
 201 501 203 500 205 500 c 0
 214 498 212 490 224 487 c 0
 277 465 338 432 410 374 c 0
 498 302 551 231 571 160 c 0
 577 143 580 124 580 105 c 0
 580 71 573 44 561 24 c 0
 538 -14 497 -32 440 -32 c 0
 396 -32 350 -14 300 22 c 1
 258 7 214 0 166 0 c 0
EndSplineSet
EndChar

StartChar: uniFBAB
Encoding: 64427 64427 300
Width: 613
Flags: W
AnchorPoint: "rtl-above" 296 576 basechar 0
AnchorPoint: "rtl-below" 296 -78 basechar 0
LayerCount: 2
Fore
SplineSet
434 258 m 1
 438 227 437 196 431 167 c 0
 423 134 409 108 388 90 c 1
 395 83 406 80 420 80 c 0
 467 80 493 92 499 117 c 0
 500 127 500 137 499 148 c 0
 496 160 491 172 485 184 c 0
 466 219 449 243 434 258 c 1
307 128 m 1
 320 137 332 154 345 178 c 0
 359 203 366 226 366 246 c 0
 366 262 363 277 358 289 c 0
 350 307 336 316 315 316 c 0
 292 316 276 308 268 293 c 0
 261 279 257 265 257 252 c 0
 256 241 257 230 260 219 c 0
 267 176 283 146 307 128 c 1
577 89 m 1
 625 89 l 1
 625 0 l 1
 440 0 l 2
 367 0 338 10 310 30 c 1
 260 10 229 0 166 0 c 0
 122 0 88 6 64 18 c 0
 25 39 5 71 5 113 c 0
 5 140 9 175 19 193 c 1
 96 167 l 1
 93 152 91 142 91 126 c 0
 91 110 96 101 106 98 c 0
 121 92 135 89 149 89 c 0
 166 89 193 92 229 98 c 1
 210 122 196 150 188 184 c 0
 181 211 178 235 178 256 c 0
 178 285 186 313 202 340 c 0
 219 371 240 384 266 379 c 1
 251 393 226 405 179 412 c 1
 200 500 l 2
 201 501 203 500 205 500 c 0
 214 498 212 490 224 487 c 0
 277 465 338 432 410 374 c 0
 492 310 546 239 571 159 c 0
 580 132 582 108 577 89 c 1
EndSplineSet
EndChar

StartChar: uniFBAD
Encoding: 64429 64429 302
Width: 613
Flags: W
AnchorPoint: "rtl-above" 257 576 basechar 0
AnchorPoint: "rtl-below" 257 -78 basechar 0
LayerCount: 2
Fore
SplineSet
374 258 m 1
 378 227 378 196 372 167 c 0
 364 134 350 108 329 90 c 1
 336 83 346 80 360 80 c 0
 407 80 433 92 439 117 c 0
 440 127 440 137 439 148 c 0
 436 160 431 172 425 184 c 0
 406 219 389 243 374 258 c 1
247 128 m 1
 260 137 273 154 286 178 c 0
 300 203 307 226 307 246 c 0
 307 262 304 277 299 289 c 0
 291 307 277 316 256 316 c 0
 233 316 217 308 209 293 c 0
 202 279 198 265 198 252 c 0
 197 241 197 230 200 219 c 0
 207 176 223 146 247 128 c 1
169 98 m 1
 151 121 137 150 129 184 c 0
 122 211 119 235 119 256 c 0
 119 285 126 313 142 340 c 0
 159 371 180 384 206 379 c 1
 191 393 166 405 119 412 c 1
 140 500 l 2
 141 501 143 500 145 500 c 0
 154 498 152 490 164 487 c 0
 217 465 278 432 350 374 c 0
 432 310 486 239 511 159 c 0
 519 132 521 108 517 89 c 1
 625 89 l 1
 625 0 l 1
 379 0 l 2
 306 0 278 10 250 30 c 1
 199 10 169 0 108 0 c 2
 -11 0 l 1
 -11 89 l 1
 103 89 l 2
 130 89 146 92 169 98 c 1
EndSplineSet
EndChar

StartChar: uniFBAE
Encoding: 64430 64430 303
Width: 613
Flags: W
AnchorPoint: "rtl-above" 108 388 basechar 0
AnchorPoint: "rtl-below" 255 -200 basechar 0
LayerCount: 2
Fore
SplineSet
12 0 m 0
 12 162 230 91 230 260 c 0
 230 309 246 346 276 367 c 0
 300 384 327 391 358 391 c 0
 402 391 433 380 451 357 c 0
 468 337 479 304 485 257 c 1
 399 257 l 1
 399 277 396 291 390 301 c 0
 381 312 370 316 357 315 c 0
 350 314 344 312 336 305 c 0
 324 295 317 280 317 260 c 0
 317 52 96 93 96 0 c 0
 96 -30 183 -46 264 -46 c 2
 613 -46 l 25
 613 -128 l 25
 258 -128 l 2
 102 -128 12 -81 12 0 c 0
EndSplineSet
EndChar

StartChar: uniFBAF
Encoding: 64431 64431 304
Width: 613
Flags: W
AnchorPoint: "rtl-below" 200 -282 basechar 0
AnchorPoint: "rtl-above" 203 321 basechar 0
LayerCount: 2
Fore
SplineSet
11 -84 m 3
 11 63.0544116985 159.744 89 279 89 c 2
 624 89 l 1
 624 0 l 1
 300 0 l 2
 208 0 97 -13.9767473296 97 -100 c 3
 97 -138.118237105 139 -172 194 -172 c 2
 613 -172 l 1
 613 -250 l 1
 194 -250 l 2
 72.0244 -250 11 -172.005681635 11 -84 c 3
EndSplineSet
EndChar

StartChar: uni0615
Encoding: 65564 -1 305
Width: 613
Flags: W
LayerCount: 2
Fore
SplineSet
277 689 m 1
 277 689 273 689 305 689 c 2
 332 690 350 692 358 696 c 0
 377 707 386 716 386 723 c 0
 386 734 382 742 373 748 c 0
 369 746 356 743 336 736 c 0
 318 731 298 715 277 689 c 1
317 638 m 2
 234 638 l 1
 177 638 l 1
 177 689 l 1
 216 689 l 1
 216 884 l 1
 266 884 l 1
 266 725 l 1
 277 749 300 769 336 784 c 0
 356 793 378 794 402 787 c 0
 425 780 436 762 436 732 c 0
 436 700 427 677 406 661 c 0
 389 646 359 638 317 638 c 2
EndSplineSet
EndChar

StartChar: fourpersian.urdu
Encoding: 65565 -1 313
Width: 613
Flags: W
LayerCount: 2
Fore
SplineSet
542 555 m 1
 525 563 472 580 448 580 c 0
 441 580 417 581 410 563 c 0
 404 550 402 537 402 516 c 0
 402 464 408 441 413 386 c 1
 320 378 l 1
 310 461 l 0
 310 467 309 481 299 504 c 0
 283 541 264 588 223 588 c 3
 162 588 149 570 149 534 c 0
 149 514 155 503 169 465 c 0
 183 415 197 359 206 318 c 0
 217 269 222 163 222 0 c 1
 140 0 l 1
 140 143 134 249 121 318 c 0
 109 388 95 432 78 477 c 0
 70 499 65 520 65 538 c 0
 65 617 109 656 223 656 c 0
 250 656 290 647 330 609 c 1
 354 644 411 656 448 656 c 0
 462 656 485 654 525 640 c 0
 552 631 572 622 573 621 c 1
 542 555 l 1
EndSplineSet
EndChar

StartChar: sevenpersian.urdu
Encoding: 65567 -1 315
Width: 613
Flags: W
LayerCount: 2
Fore
SplineSet
196 89 m 1
 548 89 l 1
 548 0 l 1
 154 0 l 1
 99 66 l 1
 122 121 152 190 207 366 c 0
 241 475 260 567 264 642 c 1
 348 642 l 1
 347 569 322 466 281 323 c 0
 259 244 230 166 196 89 c 1
EndSplineSet
EndChar

StartChar: uni06AA
Encoding: 1706 1706 348
Width: 613
Flags: W
AnchorPoint: "rtl-above" 138 700 basechar 0
AnchorPoint: "rtl-below" 280 -73 basechar 0
LayerCount: 2
Fore
SplineSet
273 42 m 0
 329 42 376 51 414 70 c 0
 451 88 479 107 498 127 c 0
 515 145 524 167 524 198 c 0
 524 215 521 253 475 263 c 2
 146 338 l 2
 95 351 65 393 65 447 c 0
 65 476 67 495 72 504 c 0
 87 531 110 555 139 577 c 2
 352 736 l 1
 404 670 l 2
 404 669 402 668 400 667 c 0
 393 661 388 667 379 660 c 2
 193 516 l 2
 168 497 157 480 157 464 c 0
 157 442 165 416 200 408 c 2
 533 333 l 2
 601 318 606 237 606 201 c 0
 606 152 589 107 554 68 c 0
 527 37 485 8 427 -19 c 0
 394 -34 345 -41 278 -41 c 0
 241 -41 204 -36 168 -25 c 0
 58 8 3 67 3 154 c 3
 3 199 14 254 52 286 c 1
 108 247 l 1
 97 223 87 199 87 154 c 3
 87 114 123 81 195 57 c 0
 224 48 249 42 273 42 c 0
EndSplineSet
Substitution2: "Final forms-1" uni06AA.fina
Substitution2: "Medial forms-1" uni06AA.medi
Substitution2: "Initial forms-1" uni06AA.init
EndChar

StartChar: uni06AA.fina
Encoding: 65579 -1 349
Width: 613
Flags: W
AnchorPoint: "rtl-above" 73 700 basechar 0
AnchorPoint: "rtl-below" 215 -73 basechar 0
LayerCount: 2
Fore
SplineSet
208 42 m 0
 264 42 311 51 349 70 c 0
 386 88 414 107 433 127 c 0
 450 145 459 167 459 198 c 0
 459 215 456 253 410 263 c 2
 81 338 l 2
 30 351 0 393 0 447 c 0
 0 476 2 495 7 504 c 0
 22 531 45 555 74 577 c 2
 287 736 l 1
 339 670 l 2
 339 669 337 668 335 667 c 0
 328 661 323 667 314 660 c 2
 128 516 l 2
 103 497 92 480 92 464 c 0
 92 442 100 416 135 408 c 2
 468 333 l 2
 499 326 518 305 528 281 c 2
 602 123 l 2
 612 100 624 89 637 89 c 2
 653 89 l 1
 653 0 l 1
 635 0 l 2
 619 0 605 3 595 9 c 0
 573 20 551 39 546 51 c 2
 517 107 l 1
 509 93 500 81 489 68 c 0
 462 37 420 8 362 -19 c 0
 329 -34 280 -41 213 -41 c 0
 176 -41 139 -36 103 -25 c 0
 -7 8 -62 67 -62 154 c 0
 -62 199 -51 254 -13 286 c 1
 43 247 l 1
 32 223 22 199 22 154 c 0
 22 114 58 81 130 57 c 0
 159 48 184 42 208 42 c 0
EndSplineSet
EndChar

StartChar: uni06AA.init
Encoding: 65580 -1 350
Width: 613
Flags: W
AnchorPoint: "rtl-above" 138 700 basechar 0
AnchorPoint: "rtl-below" 280 -73 basechar 0
LayerCount: 2
Fore
SplineSet
-12 0 m 1
 -12 89 l 1
 419 89 l 2
 469 89 501 106 516 142 c 0
 521 154 524 166 524 178 c 0
 524 195 521 253 475 263 c 2
 146 338 l 2
 95 351 65 393 65 447 c 0
 65 476 67 495 72 504 c 0
 87 531 110 555 139 577 c 2
 352 736 l 1
 404 670 l 2
 404 669 402 668 400 667 c 0
 393 661 388 667 379 660 c 2
 193 516 l 2
 168 497 157 480 157 464 c 0
 157 442 165 416 200 408 c 2
 533 333 l 2
 601 318 612 220 612 184 c 0
 612 147 601 112 581 78 c 0
 550 26 499 0 429 0 c 2
 -12 0 l 1
EndSplineSet
EndChar

StartChar: uni06AA.medi
Encoding: 65581 -1 351
Width: 613
Flags: W
AnchorPoint: "rtl-above" 73 700 basechar 0
AnchorPoint: "rtl-below" 215 -73 basechar 0
LayerCount: 2
Fore
SplineSet
-11 0 m 1
 -11 89 l 1
 348 89 l 2
 397 89 431 106 446 142 c 0
 453 158 459 167 459 198 c 0
 459 215 456 253 410 263 c 2
 81 338 l 2
 30 351 0 393 0 447 c 0
 0 476 2 495 7 504 c 0
 22 531 45 555 74 577 c 2
 287 736 l 1
 339 670 l 2
 339 669 337 668 335 667 c 0
 328 661 323 667 314 660 c 2
 128 516 l 2
 103 497 92 480 92 464 c 0
 92 442 100 416 135 408 c 2
 468 333 l 2
 499 326 518 305 528 281 c 2
 602 123 l 2
 612 100 624 89 637 89 c 2
 653 89 l 1
 653 0 l 1
 635 0 l 2
 619 0 605 3 595 9 c 0
 573 20 551 39 546 51 c 2
 517 107 l 1
 509 93 503 79 492 66 c 0
 454 19 428 0 358 0 c 2
 -11 0 l 1
EndSplineSet
EndChar

StartChar: uni06D4
Encoding: 1748 1748 352
Width: 613
Flags: W
LayerCount: 2
Fore
SplineSet
200 0 m 1
 200 89 l 1
 413 89 l 1
 413 0 l 1
 200 0 l 1
EndSplineSet
EndChar
